<?xml version="1.0" encoding="UTF-8"?>
<svg width="408px" height="48px" viewBox="0 0 408 48" version="1.1" xmlns="http://www.w3.org/2000/svg" xmlns:xlink="http://www.w3.org/1999/xlink">
    <!-- Generator: Sketch 51.3 (57544) - http://www.bohemiancoding.com/sketch -->
    <title>uxem-sprite</title>
    <desc>Created with Sketch.</desc>
    <defs></defs>
    <g id="uxem-sprite" stroke="none" stroke-width="1" fill="none" fill-rule="evenodd">
        <g id="darkmode" fill="#333333">
            <path d="M12,24 C5.372583,24 0,18.627417 0,12 C0,5.372583 5.372583,2.35922393e-14 12,2.35922393e-14 C18.627417,2.35922393e-14 24,5.372583 24,12 C24,18.627417 18.627417,24 12,24 Z M12,21 C16.9705627,21 21,16.9705627 21,12 C21,7.02943725 16.9705627,3 12,3 L12,21 Z M2.5,11 C2.22385763,11 2,11.2238576 2,11.5 C2,11.7761424 2.22385763,12 2.5,12 L10.5,12 C10.7761424,12 11,11.7761424 11,11.5 C11,11.2238576 10.7761424,11 10.5,11 L2.5,11 Z M4.5,7 C4.22385763,7 4,7.22385763 4,7.5 C4,7.77614237 4.22385763,8 4.5,8 L10.5,8 C10.7761424,8 11,7.77614237 11,7.5 C11,7.22385763 10.7761424,7 10.5,7 L4.5,7 Z M11,3.5 C11,3.22385763 10.7761424,3 10.5,3 L6.5,3 C6.22385763,3 6,3.22385763 6,3.5 C6,3.77614237 6.22385763,4 6.5,4 L10.5,4 C10.7761424,4 11,3.77614237 11,3.5 Z M4.5,15 C4.22385763,15 4,15.2238576 4,15.5 C4,15.7761424 4.22385763,16 4.5,16 L10.5,16 C10.7761424,16 11,15.7761424 11,15.5 C11,15.2238576 10.7761424,15 10.5,15 L4.5,15 Z M11,19.5 C11,19.2238576 10.7761424,19 10.5,19 L6.5,19 C6.22385763,19 6,19.2238576 6,19.5 C6,19.7761424 6.22385763,20 6.5,20 L10.5,20 C10.7761424,20 11,19.7761424 11,19.5 Z" id="Combined-Shape"></path>
        </g>
        <g id="save" transform="translate(48.000000, 0.000000)" fill="#333333">
            <path d="M19.6715729,0 L24,4.32842712 L24,23 C24,23.5522847 23.5522847,24 23,24 L1,24 C0.44771525,24 6.76353751e-17,23.5522847 0,23 L0,1 C-6.76353751e-17,0.44771525 0.44771525,1.01453063e-16 1,0 L19.6715729,0 Z M12,21 C14.209139,21 16,19.209139 16,17 C16,14.790861 14.209139,13 12,13 C9.790861,13 8,14.790861 8,17 C8,19.209139 9.790861,21 12,21 Z M6,4 L6,8 L18,8 L18,4 L6,4 Z" id="Combined-Shape"></path>
        </g>
        <g id="crafted-by" transform="translate(72.000000, 0.000000)" fill="#333333">
            <path d="M2,20 C0.0297532966,8.65317506 6.69641996,2.65317506 22,2 C21.9197962,2 24.2131127,27.3096096 4,22 C3.48831523,22.3577897 7.2588569,15.5500334 13,12 C10.9928126,10.5603506 7.32614589,13.2270172 2,20 Z" id="Path-4"></path>
        </g>
        <g id="crafted-by-copy-3" transform="translate(72.000000, 24.000000)" fill="#E0E0E0">
            <path d="M2,20 C0.0297532966,8.65317506 6.69641996,2.65317506 22,2 C21.9197962,2 24.2131127,27.3096096 4,22 C3.48831523,22.3577897 7.2588569,15.5500334 13,12 C10.9928126,10.5603506 7.32614589,13.2270172 2,20 Z" id="Path-4"></path>
        </g>
        <g id="darkmode-copy-2" transform="translate(0.000000, 24.000000)" fill="#E0E0E0">
            <path d="M12,20 C7.581722,20 4,16.418278 4,12 C4,7.581722 7.581722,4 12,4 C16.418278,4 20,7.581722 20,12 C20,16.418278 16.418278,20 12,20 Z M18,12 C18,8.6862915 15.3137085,6 12,6 C8.6862915,6 6,8.6862915 6,12 L18,12 Z" id="Combined-Shape" transform="translate(12.000000, 12.000000) rotate(90.000000) translate(-12.000000, -12.000000) "></path>
            <rect id="Rectangle-6" x="11" y="0" width="1" height="3" rx="0.5"></rect>
            <rect id="Rectangle-6-Copy" x="11" y="21" width="1" height="3" rx="0.5"></rect>
            <rect id="Rectangle-6-Copy-2" transform="translate(22.500000, 11.500000) rotate(90.000000) translate(-22.500000, -11.500000) " x="22" y="10" width="1" height="3" rx="0.5"></rect>
            <rect id="Rectangle-6-Copy-3" transform="translate(1.500000, 11.500000) rotate(90.000000) translate(-1.500000, -11.500000) " x="1" y="10" width="1" height="3" rx="0.5"></rect>
            <rect id="Rectangle-6-Copy-4" transform="translate(20.414214, 3.414214) rotate(45.000000) translate(-20.414214, -3.414214) " x="19.9142136" y="1.91421356" width="1" height="3" rx="0.5"></rect>
            <rect id="Rectangle-6-Copy-5" transform="translate(3.414214, 20.414214) rotate(45.000000) translate(-3.414214, -20.414214) " x="2.91421356" y="18.9142136" width="1" height="3" rx="0.5"></rect>
            <rect id="Rectangle-6-Copy-6" transform="translate(20.414214, 20.414214) rotate(-45.000000) translate(-20.414214, -20.414214) " x="19.9142136" y="18.9142136" width="1" height="3" rx="0.5"></rect>
            <rect id="Rectangle-6-Copy-7" transform="translate(3.414214, 3.414214) rotate(-45.000000) translate(-3.414214, -3.414214) " x="2.91421356" y="1.91421356" width="1" height="3" rx="0.5"></rect>
        </g>
        <g id="save-copy-2" transform="translate(48.000000, 24.000000)" fill="#E0E0E0">
            <path d="M19.6715729,0 L24,4.32842712 L24,23 C24,23.5522847 23.5522847,24 23,24 L1,24 C0.44771525,24 6.76353751e-17,23.5522847 0,23 L0,1 C-6.76353751e-17,0.44771525 0.44771525,1.01453063e-16 1,0 L19.6715729,0 Z M12,21 C14.209139,21 16,19.209139 16,17 C16,14.790861 14.209139,13 12,13 C9.790861,13 8,14.790861 8,17 C8,19.209139 9.790861,21 12,21 Z M6,4 L6,8 L18,8 L18,4 L6,4 Z" id="Combined-Shape"></path>
        </g>
        <g id="medium" transform="translate(120.000000, 0.000000)" fill="#333333" fill-rule="nonzero">
            <path d="M4.37161531,7.26396237 C4.39646379,7.01656265 4.30283969,6.77203554 4.11951447,6.60552615 L2.25210084,4.33862434 L2.25210084,4 L8.05042017,4 L12.5322129,13.9047618 L16.4724557,4 L22,4 L22,4.33862434 L20.4033614,5.88124632 C20.2657136,5.98697657 20.1974333,6.16075172 20.2259571,6.33274545 L20.2259571,17.6672546 C20.1974333,17.8392483 20.2657136,18.0130234 20.4033614,18.1187537 L21.9626518,19.6613757 L21.9626518,20 L14.1195145,20 L14.1195145,19.6613757 L15.7348273,18.0811288 C15.8935574,17.9212228 15.8935574,17.8741917 15.8935574,17.6296297 L15.8935574,8.46796003 L11.4024276,19.9623751 L10.7955182,19.9623751 L5.56676003,8.46796003 L5.56676003,16.1716637 C5.52316455,16.4955491 5.62991144,16.8216308 5.85620915,17.0558495 L7.95704948,19.6237508 L7.95704948,19.9623751 L2,19.9623751 L2,19.6237508 L4.10084034,17.0558495 C4.3254904,16.8212425 4.42601279,16.4929977 4.37161531,16.1716637 L4.37161531,7.26396237 Z" id="Shape"></path>
        </g>
        <g id="dribbble-ball-icon" transform="translate(96.000000, 0.000000)">
            <g>
                <rect id="Rectangle-path" fill-opacity="0" fill="#000000" fill-rule="nonzero" x="0" y="0" width="24" height="24"></rect>
                <path d="M12,2 C6.4794,2 2,6.4794 2,12 C2,17.5206 6.4794,22 12,22 C17.50976,22 22,17.5206 22,12 C22,6.4794 17.50976,2 12,2 Z M18.6052,6.60954 C19.79826,8.0629 20.5141,9.91758 20.5358,11.92408 C20.2538,11.86984 17.43384,11.29502 14.5922,11.65292 C14.52712,11.51194 14.47288,11.36008 14.40782,11.20824 C14.23428,10.7961 14.03904,10.3731 13.84382,9.9718 C16.98916,8.69198 18.42082,6.84816 18.6052,6.60954 Z M12,3.475054 C14.1692,3.475054 16.15402,4.2885 17.6616,5.62256 C17.50976,5.83948 16.21908,7.564 13.18222,8.70282 C11.78308,6.13232 10.2321,4.0282 9.9935,3.70282 C10.6334,3.550976 11.30586,3.475054 12,3.475054 Z M8.3666,4.27766 C8.59436,4.58134 10.1128,6.69632 11.53362,9.21258 C7.5423,10.27548 4.01736,10.2538 3.637744,10.2538333 C4.19088,7.60738 5.98048,5.40564 8.3666,4.27766 Z M3.453362,12.01084 C3.453362,11.92408 3.453362,11.83732 3.453362,11.75054 C3.822126,11.76138 7.9653,11.81562 12.22776,10.5358 C12.47722,11.01302 12.70498,11.50108 12.9219,11.98916 C12.81344,12.0217 12.69414,12.05424 12.58568,12.08676 C8.18222,13.5076 5.83948,17.39046 5.64426,17.71584 C4.2885,16.20824 3.453362,14.20174 3.453362,12.01084 Z M12,20.54664 C10.02604,20.54664 8.2039,19.87418 6.76138,18.7462 C6.91324,18.43168 8.6486,15.0911 13.4642,13.40998 C13.4859,13.39914 13.49674,13.39914 13.51844,13.38828 C14.72234,16.50108 15.21042,19.11496 15.34056,19.86334 C14.3102,20.30802 13.18222,20.54664 12,20.54664 Z M16.7614,19.08244 C16.67462,18.56182 16.2191,16.06724 15.10196,12.99784 C17.78092,12.57484 20.12364,13.26898 20.41648,13.3666 C20.04772,15.74186 18.68112,17.79176 16.7614,19.08244 Z" id="Shape" fill="#333333"></path>
            </g>
        </g>
        <g id="medium-lt" transform="translate(120.000000, 24.000000)" fill="#E0E0E0" fill-rule="nonzero">
            <path d="M4.37161531,7.26396237 C4.39646379,7.01656265 4.30283969,6.77203554 4.11951447,6.60552615 L2.25210084,4.33862434 L2.25210084,4 L8.05042017,4 L12.5322129,13.9047618 L16.4724557,4 L22,4 L22,4.33862434 L20.4033614,5.88124632 C20.2657136,5.98697657 20.1974333,6.16075172 20.2259571,6.33274545 L20.2259571,17.6672546 C20.1974333,17.8392483 20.2657136,18.0130234 20.4033614,18.1187537 L21.9626518,19.6613757 L21.9626518,20 L14.1195145,20 L14.1195145,19.6613757 L15.7348273,18.0811288 C15.8935574,17.9212228 15.8935574,17.8741917 15.8935574,17.6296297 L15.8935574,8.46796003 L11.4024276,19.9623751 L10.7955182,19.9623751 L5.56676003,8.46796003 L5.56676003,16.1716637 C5.52316455,16.4955491 5.62991144,16.8216308 5.85620915,17.0558495 L7.95704948,19.6237508 L7.95704948,19.9623751 L2,19.9623751 L2,19.6237508 L4.10084034,17.0558495 C4.3254904,16.8212425 4.42601279,16.4929977 4.37161531,16.1716637 L4.37161531,7.26396237 Z" id="Shape"></path>
        </g>
        <g id="dribbble-ball-icon-lt" transform="translate(96.000000, 24.000000)">
            <g id="dribbble-ball-icon">
                <rect id="Rectangle-path" fill-opacity="0" fill="#000000" fill-rule="nonzero" x="0" y="0" width="24" height="24"></rect>
                <path d="M12,2 C6.4794,2 2,6.4794 2,12 C2,17.5206 6.4794,22 12,22 C17.50976,22 22,17.5206 22,12 C22,6.4794 17.50976,2 12,2 Z M18.6052,6.60954 C19.79826,8.0629 20.5141,9.91758 20.5358,11.92408 C20.2538,11.86984 17.43384,11.29502 14.5922,11.65292 C14.52712,11.51194 14.47288,11.36008 14.40782,11.20824 C14.23428,10.7961 14.03904,10.3731 13.84382,9.9718 C16.98916,8.69198 18.42082,6.84816 18.6052,6.60954 Z M12,3.475054 C14.1692,3.475054 16.15402,4.2885 17.6616,5.62256 C17.50976,5.83948 16.21908,7.564 13.18222,8.70282 C11.78308,6.13232 10.2321,4.0282 9.9935,3.70282 C10.6334,3.550976 11.30586,3.475054 12,3.475054 Z M8.3666,4.27766 C8.59436,4.58134 10.1128,6.69632 11.53362,9.21258 C7.5423,10.27548 4.01736,10.2538 3.637744,10.2538333 C4.19088,7.60738 5.98048,5.40564 8.3666,4.27766 Z M3.453362,12.01084 C3.453362,11.92408 3.453362,11.83732 3.453362,11.75054 C3.822126,11.76138 7.9653,11.81562 12.22776,10.5358 C12.47722,11.01302 12.70498,11.50108 12.9219,11.98916 C12.81344,12.0217 12.69414,12.05424 12.58568,12.08676 C8.18222,13.5076 5.83948,17.39046 5.64426,17.71584 C4.2885,16.20824 3.453362,14.20174 3.453362,12.01084 Z M12,20.54664 C10.02604,20.54664 8.2039,19.87418 6.76138,18.7462 C6.91324,18.43168 8.6486,15.0911 13.4642,13.40998 C13.4859,13.39914 13.49674,13.39914 13.51844,13.38828 C14.72234,16.50108 15.21042,19.11496 15.34056,19.86334 C14.3102,20.30802 13.18222,20.54664 12,20.54664 Z M16.7614,19.08244 C16.67462,18.56182 16.2191,16.06724 15.10196,12.99784 C17.78092,12.57484 20.12364,13.26898 20.41648,13.3666 C20.04772,15.74186 18.68112,17.79176 16.7614,19.08244 Z" id="Shape" fill="#E0E0E0"></path>
            </g>
        </g>
        <g id="open" transform="translate(144.000000, 0.000000)" fill="#333333">
            <path d="M15,10 L15,8.26315789 C15,4.97770049 13.9228018,4 12.1902055,4 C10.0829718,4 9,5.39243274 9,8.16224525 C9,8.71453 8.55228475,9.16224525 8,9.16224525 C7.44771525,9.16224525 7,8.71453 7,8.16224525 C7,4.38224916 8.85280671,2 12.1902055,2 C14.9864517,2 17,3.82756267 17,8.26315789 L17,10 L19,10 C19.5522847,10 20,10.4477153 20,11 L20,21 C20,21.5522847 19.5522847,22 19,22 L5,22 C4.44771525,22 4,21.5522847 4,21 L4,11 C4,10.4477153 4.44771525,10 5,10 L15,10 Z M11.0314412,16.7502457 C11.0109158,16.8300767 11,16.9137636 11,17 L11,18 C11,18.5522847 11.4477153,19 12,19 C12.5522847,19 13,18.5522847 13,18 L13,17 C13,16.9137636 12.9890842,16.8300767 12.9685588,16.7502457 C13.5836563,16.4091327 14,15.7531875 14,15 C14,13.8954305 13.1045695,13 12,13 C10.8954305,13 10,13.8954305 10,15 C10,15.7531875 10.4163437,16.4091327 11.0314412,16.7502457 Z" id="Combined-Shape"></path>
        </g>
        <g id="lock-faed" transform="translate(144.000000, 24.000000)" fill="#E0E0E0">
            <path d="M15,10 L15,8.26315789 C15,4.97770049 13.9228018,4 12.1902055,4 C10.0829718,4 9,5.39243274 9,8.16224525 C9,8.71453 8.55228475,9.16224525 8,9.16224525 C7.44771525,9.16224525 7,8.71453 7,8.16224525 C7,4.38224916 8.85280671,2 12.1902055,2 C14.9864517,2 17,3.82756267 17,8.26315789 L17,10 L19,10 C19.5522847,10 20,10.4477153 20,11 L20,21 C20,21.5522847 19.5522847,22 19,22 L5,22 C4.44771525,22 4,21.5522847 4,21 L4,11 C4,10.4477153 4.44771525,10 5,10 L15,10 Z M11.0314412,16.7502457 C11.0109158,16.8300767 11,16.9137636 11,17 L11,18 C11,18.5522847 11.4477153,19 12,19 C12.5522847,19 13,18.5522847 13,18 L13,17 C13,16.9137636 12.9890842,16.8300767 12.9685588,16.7502457 C13.5836563,16.4091327 14,15.7531875 14,15 C14,13.8954305 13.1045695,13 12,13 C10.8954305,13 10,13.8954305 10,15 C10,15.7531875 10.4163437,16.4091327 11.0314412,16.7502457 Z" id="Combined-Shape"></path>
        </g>
        <g id="locked" transform="translate(168.000000, 0.000000)" fill="#333333">
            <path d="M7,10 L7,8.16224525 C7,4.38224916 8.85280671,2 12.1902055,2 C14.9864517,2 17,3.82756267 17,8.26315789 L17,10 L19,10 C19.5522847,10 20,10.4477153 20,11 L20,21 C20,21.5522847 19.5522847,22 19,22 L5,22 C4.44771525,22 4,21.5522847 4,21 L4,11 C4,10.4477153 4.44771525,10 5,10 L7,10 Z M9,10 L15,10 L15,8.26315789 C15,4.97770049 13.9228018,4 12.1902055,4 C10.0829718,4 9,5.39243274 9,8.16224525 L9,10 Z M11.0314412,16.7502457 C11.0109158,16.8300767 11,16.9137636 11,17 L11,18 C11,18.5522847 11.4477153,19 12,19 C12.5522847,19 13,18.5522847 13,18 L13,17 C13,16.9137636 12.9890842,16.8300767 12.9685588,16.7502457 C13.5836563,16.4091327 14,15.7531875 14,15 C14,13.8954305 13.1045695,13 12,13 C10.8954305,13 10,13.8954305 10,15 C10,15.7531875 10.4163437,16.4091327 11.0314412,16.7502457 Z" id="Combined-Shape"></path>
        </g>
        <g id="locked-faded" transform="translate(168.000000, 24.000000)" fill="#E0E0E0">
            <path d="M7,10 L7,8.16224525 C7,4.38224916 8.85280671,2 12.1902055,2 C14.9864517,2 17,3.82756267 17,8.26315789 L17,10 L19,10 C19.5522847,10 20,10.4477153 20,11 L20,21 C20,21.5522847 19.5522847,22 19,22 L5,22 C4.44771525,22 4,21.5522847 4,21 L4,11 C4,10.4477153 4.44771525,10 5,10 L7,10 Z M9,10 L15,10 L15,8.26315789 C15,4.97770049 13.9228018,4 12.1902055,4 C10.0829718,4 9,5.39243274 9,8.16224525 L9,10 Z M11.0314412,16.7502457 C11.0109158,16.8300767 11,16.9137636 11,17 L11,18 C11,18.5522847 11.4477153,19 12,19 C12.5522847,19 13,18.5522847 13,18 L13,17 C13,16.9137636 12.9890842,16.8300767 12.9685588,16.7502457 C13.5836563,16.4091327 14,15.7531875 14,15 C14,13.8954305 13.1045695,13 12,13 C10.8954305,13 10,13.8954305 10,15 C10,15.7531875 10.4163437,16.4091327 11.0314412,16.7502457 Z" id="Combined-Shape"></path>
        </g>
        <g id="bold" transform="translate(216.000000, 0.000000)" fill="#FFFFFF">
            <path d="M6.9,4.075 L5,3.875 L5,2.9 C5.25000125,2.7999995 5.57916462,2.7000005 5.9875,2.6 C6.39583537,2.4999995 6.82083112,2.41250037 7.2625,2.3375 C7.70416887,2.26249963 8.13749787,2.19583363 8.5625,2.1375 C8.98750213,2.07916637 9.3499985,2.0333335 9.65,2 L10.5,2 L10.5,10.65 L10.55,10.65 C10.883335,9.8166625 11.3916632,9.166669 12.075,8.7 C12.7583368,8.233331 13.566662,8 14.5,8 C15.966674,8 17.1083293,8.50832825 17.925,9.525 C18.7416707,10.5416718 19.15,12.083323 19.15,14.15 C19.15,16.4333448 18.5458394,18.1499942 17.3375,19.3 C16.1291606,20.4500058 14.358345,21.025 12.025,21.025 C11.6083313,21.025 11.1416692,20.9958336 10.625,20.9375 C10.1083308,20.8791664 9.60833575,20.8083338 9.125,20.725 C8.64166425,20.6416663 8.19583537,20.5416672 7.7875,20.425 C7.37916462,20.3083328 7.08333425,20.1916673 6.9,20.075 L6.9,4.075 Z M12.875,10 C12.2416635,10 11.7333352,10.2291644 11.35,10.6875 C10.9666647,11.1458356 10.6833342,11.7249965 10.5,12.425 L10.5,19.05 C10.7333345,19.2166675 11.0208316,19.3499995 11.3625,19.45 C11.7041684,19.5500005 12.0916645,19.6 12.525,19.6 C13.4750048,19.6 14.1708311,19.1750043 14.6125,18.325 C15.0541689,17.4749958 15.275,16.1416758 15.275,14.325 C15.275,13.0083267 15.0958351,11.9583372 14.7375,11.175 C14.3791649,10.3916627 13.7583378,10 12.875,10 Z" id="b"></path>
        </g>
        <g id="italic" transform="translate(240.000000, 0.000000)" fill="#FFFFFF">
            <path d="M9.52222233,10.225 L9.52222233,9.725 C9.77222358,9.6249995 10.2055541,9.12083388 10.5222223,9.0125 C10.8388906,8.90416613 11.1888873,8.80833375 11.5222223,8.725 C11.8555573,8.64166625 12.2222208,8.57083363 12.5222223,8.5125 C12.8222238,8.45416638 12.7888878,8.5125 13.0222223,8.5125 L14.0222223,9.0125 L11.0222223,19.325 L13.5222223,19.725 L13.5222223,20.3 C13.1722206,20.566668 12.0388913,21.2083325 11.5722223,21.375 C11.1055533,21.5416675 10.5722246,21.725 10.1222223,21.725 C9.63888658,21.725 8.73055671,21.5916678 8.52222233,21.375 C8.31388796,21.1583323 8.02222233,21.0083347 8.02222233,20.725 C8.02222233,20.391665 7.97222208,19.6416683 8.02222233,19.325 C8.07222258,19.0083318 8.43888858,18.1083352 8.52222233,17.725 L10.5222223,10.225 L9.52222233,10.225 Z M11,5.23182669 C11,4.54101974 11.2125528,3.99635319 11.6376648,3.59781072 C12.0627767,3.19926825 12.6207278,3 13.3115348,3 C14.0554807,3 14.6400009,3.19926825 15.0651129,3.59781072 C15.4902249,3.99635319 15.7027777,4.54101974 15.7027777,5.23182669 C15.7027777,5.89606414 15.4902249,6.41416159 15.0651129,6.78613456 C14.6400009,7.15810754 14.0554807,7.34409123 13.3115348,7.34409123 C12.6207278,7.34409123 12.0627767,7.15810754 11.6376648,6.78613456 C11.2125528,6.41416159 11,5.89606414 11,5.23182669 Z" id="i"></path>
        </g>
        <g id="highlight" transform="translate(192.000000, 0.000000)" fill="#FFFFFF">
            <g id="highlighter" transform="translate(2.000000, 2.000000)">
                <path d="M2.00039259,15.2821783 C1.91715724,15.1929589 1.84093974,15.0984912 1.77108731,15 L0.183413395,16.7018169 C-0.0956698906,17.0009644 -0.0502984734,17.5004182 0.278889252,17.7357126 L1.88990173,18.8869931 C2.02128304,18.980761 2.38441774,19.120713 2.68080095,18.8030219 L4,17.3889814 C3.90778827,17.3139321 3.8196567,17.2320602 3.73642135,17.1428408 L2.00039259,15.2821783 Z" id="Shape" fill-rule="nonzero"></path>
                <path d="M4.45416488,9.60545691 C4.27760936,9.78215678 4.12559551,9.97690197 4,10.1856503 L8.81449402,15 C9.02309803,14.8744045 9.21798757,14.722535 9.39454309,14.5458351 L17,6.94037821 L12.0596218,2 L4.45416488,9.60545691 Z" id="Shape" fill-rule="nonzero"></path>
                <path d="M18.4073607,2.75855873 L16.241362,0.592653904 C15.4505889,-0.198285395 14.1714015,-0.196816867 13.38195,0.592653904 L13,0.974613246 L18.0254107,6 L18.4073607,5.6181875 C19.1981337,4.82724824 19.1969589,3.54832322 18.4073607,2.75855873 Z" id="Shape" fill-rule="nonzero"></path>
                <path d="M3.64133234,11.4090742 C3.64133234,11.7724557 3.49391321,12.1279643 3.23720317,12.384832 L2.35901718,13.2630295 C1.87847701,13.7434216 1.88218179,14.5223606 2.35901718,14.9990478 L4.00100425,16.6410563 C4.48046389,17.1205222 5.25923842,17.1188241 5.73699999,16.640902 L6.61518602,15.7628589 C6.87205041,15.5059911 7.2275544,15.3587244 7.59077673,15.3587244 C7.72877958,15.3587244 7.86523878,15.3491536 8,15.3321732 L3.66788327,11 C3.65074867,11.134763 3.64133234,11.2710696 3.64133234,11.4090742 Z" id="Shape" fill-rule="nonzero"></path>
            </g>
        </g>
        <g id="bold-dk" transform="translate(216.000000, 24.000000)" fill="#333333">
            <path d="M6.9,4.075 L5,3.875 L5,2.9 C5.25000125,2.7999995 5.57916462,2.7000005 5.9875,2.6 C6.39583537,2.4999995 6.82083112,2.41250037 7.2625,2.3375 C7.70416887,2.26249963 8.13749787,2.19583363 8.5625,2.1375 C8.98750213,2.07916637 9.3499985,2.0333335 9.65,2 L10.5,2 L10.5,10.65 L10.55,10.65 C10.883335,9.8166625 11.3916632,9.166669 12.075,8.7 C12.7583368,8.233331 13.566662,8 14.5,8 C15.966674,8 17.1083293,8.50832825 17.925,9.525 C18.7416707,10.5416718 19.15,12.083323 19.15,14.15 C19.15,16.4333448 18.5458394,18.1499942 17.3375,19.3 C16.1291606,20.4500058 14.358345,21.025 12.025,21.025 C11.6083313,21.025 11.1416692,20.9958336 10.625,20.9375 C10.1083308,20.8791664 9.60833575,20.8083338 9.125,20.725 C8.64166425,20.6416663 8.19583537,20.5416672 7.7875,20.425 C7.37916462,20.3083328 7.08333425,20.1916673 6.9,20.075 L6.9,4.075 Z M12.875,10 C12.2416635,10 11.7333352,10.2291644 11.35,10.6875 C10.9666647,11.1458356 10.6833342,11.7249965 10.5,12.425 L10.5,19.05 C10.7333345,19.2166675 11.0208316,19.3499995 11.3625,19.45 C11.7041684,19.5500005 12.0916645,19.6 12.525,19.6 C13.4750048,19.6 14.1708311,19.1750043 14.6125,18.325 C15.0541689,17.4749958 15.275,16.1416758 15.275,14.325 C15.275,13.0083267 15.0958351,11.9583372 14.7375,11.175 C14.3791649,10.3916627 13.7583378,10 12.875,10 Z" id="b"></path>
        </g>
        <g id="italic-dk" transform="translate(240.000000, 24.000000)" fill="#333333">
            <path d="M9.52222233,10.225 L9.52222233,9.725 C9.77222358,9.6249995 10.2055541,9.12083388 10.5222223,9.0125 C10.8388906,8.90416613 11.1888873,8.80833375 11.5222223,8.725 C11.8555573,8.64166625 12.2222208,8.57083363 12.5222223,8.5125 C12.8222238,8.45416638 12.7888878,8.5125 13.0222223,8.5125 L14.0222223,9.0125 L11.0222223,19.325 L13.5222223,19.725 L13.5222223,20.3 C13.1722206,20.566668 12.0388913,21.2083325 11.5722223,21.375 C11.1055533,21.5416675 10.5722246,21.725 10.1222223,21.725 C9.63888658,21.725 8.73055671,21.5916678 8.52222233,21.375 C8.31388796,21.1583323 8.02222233,21.0083347 8.02222233,20.725 C8.02222233,20.391665 7.97222208,19.6416683 8.02222233,19.325 C8.07222258,19.0083318 8.43888858,18.1083352 8.52222233,17.725 L10.5222223,10.225 L9.52222233,10.225 Z M11,5.23182669 C11,4.54101974 11.2125528,3.99635319 11.6376648,3.59781072 C12.0627767,3.19926825 12.6207278,3 13.3115348,3 C14.0554807,3 14.6400009,3.19926825 15.0651129,3.59781072 C15.4902249,3.99635319 15.7027777,4.54101974 15.7027777,5.23182669 C15.7027777,5.89606414 15.4902249,6.41416159 15.0651129,6.78613456 C14.6400009,7.15810754 14.0554807,7.34409123 13.3115348,7.34409123 C12.6207278,7.34409123 12.0627767,7.15810754 11.6376648,6.78613456 C11.2125528,6.41416159 11,5.89606414 11,5.23182669 Z" id="i"></path>
        </g>
        <g id="highlight-dk" transform="translate(192.000000, 24.000000)" fill="#333333">
            <g id="highlighter" transform="translate(2.000000, 2.000000)">
                <path d="M2.00039259,15.2821783 C1.91715724,15.1929589 1.84093974,15.0984912 1.77108731,15 L0.183413395,16.7018169 C-0.0956698906,17.0009644 -0.0502984734,17.5004182 0.278889252,17.7357126 L1.88990173,18.8869931 C2.02128304,18.980761 2.38441774,19.120713 2.68080095,18.8030219 L4,17.3889814 C3.90778827,17.3139321 3.8196567,17.2320602 3.73642135,17.1428408 L2.00039259,15.2821783 Z" id="Shape" fill-rule="nonzero"></path>
                <path d="M4.45416488,9.60545691 C4.27760936,9.78215678 4.12559551,9.97690197 4,10.1856503 L8.81449402,15 C9.02309803,14.8744045 9.21798757,14.722535 9.39454309,14.5458351 L17,6.94037821 L12.0596218,2 L4.45416488,9.60545691 Z" id="Shape" fill-rule="nonzero"></path>
                <path d="M18.4073607,2.75855873 L16.241362,0.592653904 C15.4505889,-0.198285395 14.1714015,-0.196816867 13.38195,0.592653904 L13,0.974613246 L18.0254107,6 L18.4073607,5.6181875 C19.1981337,4.82724824 19.1969589,3.54832322 18.4073607,2.75855873 Z" id="Shape" fill-rule="nonzero"></path>
                <path d="M3.64133234,11.4090742 C3.64133234,11.7724557 3.49391321,12.1279643 3.23720317,12.384832 L2.35901718,13.2630295 C1.87847701,13.7434216 1.88218179,14.5223606 2.35901718,14.9990478 L4.00100425,16.6410563 C4.48046389,17.1205222 5.25923842,17.1188241 5.73699999,16.640902 L6.61518602,15.7628589 C6.87205041,15.5059911 7.2275544,15.3587244 7.59077673,15.3587244 C7.72877958,15.3587244 7.86523878,15.3491536 8,15.3321732 L3.66788327,11 C3.65074867,11.134763 3.64133234,11.2710696 3.64133234,11.4090742 Z" id="Shape" fill-rule="nonzero"></path>
            </g>
        </g>
        <g id="projects" transform="translate(24.000000, 0.000000)" fill="#333333">
            <path d="M1,-1.77635684e-15 L8.58578644,-1.55431223e-15 C8.85100293,-1.60303171e-15 9.10535684,0.10535684 9.29289322,0.292893219 L12,3 L23,3 C23.5522847,3 24,3.44771525 24,4 L24,23 C24,23.5522847 23.5522847,24 23,24 L1,24 C0.44771525,24 6.76353751e-17,23.5522847 0,23 L0,1 C-6.76353751e-17,0.44771525 0.44771525,-1.67490378e-15 1,-1.77635684e-15 Z M10,9 L10,11 L22,11 L22,9 L10,9 Z M10,13 L10,15 L22,15 L22,13 L10,13 Z M10,17 L10,19 L22,19 L22,17 L10,17 Z" id="Combined-Shape"></path>
        </g>
        <g id="project-light" transform="translate(24.000000, 24.000000)" fill="#E0E0E0">
            <path d="M1,-1.77635684e-15 L8.58578644,-1.55431223e-15 C8.85100293,-1.60303171e-15 9.10535684,0.10535684 9.29289322,0.292893219 L12,3 L23,3 C23.5522847,3 24,3.44771525 24,4 L24,23 C24,23.5522847 23.5522847,24 23,24 L1,24 C0.44771525,24 6.76353751e-17,23.5522847 0,23 L0,1 C-6.76353751e-17,0.44771525 0.44771525,-1.67490378e-15 1,-1.77635684e-15 Z M10,9 L10,11 L22,11 L22,9 L10,9 Z M10,13 L10,15 L22,15 L22,13 L10,13 Z M10,17 L10,19 L22,19 L22,17 L10,17 Z" id="Combined-Shape"></path>
        </g>
        <g id="trash" transform="translate(264.000000, 0.000000)" fill="#333333">
            <path d="M8,3 L9,0 L15,0 L16,3 L21,3 L21,7 L19,7 L19,23 C19,23.5522847 18.5522847,24 18,24 L6,24 C5.44771525,24 5,23.5522847 5,23 L5,7 L3,7 L3,3 L8,3 Z M9,8 L9,22 L11,22 L11,8 L9,8 Z M13,8 L13,22 L15,22 L15,8 L13,8 Z" id="Combined-Shape"></path>
        </g>
        <g id="trash-light" transform="translate(264.000000, 24.000000)" fill="#E0E0E0">
            <path d="M8,3 L9,0 L15,0 L16,3 L21,3 L21,7 L19,7 L19,23 C19,23.5522847 18.5522847,24 18,24 L6,24 C5.44771525,24 5,23.5522847 5,23 L5,7 L3,7 L3,3 L8,3 Z M9,8 L9,22 L11,22 L11,8 L9,8 Z M13,8 L13,22 L15,22 L15,8 L13,8 Z" id="Combined-Shape"></path>
        </g>
        <g id="arrow-down-dk" transform="translate(288.000000, 0.000000)" fill="#333333" fill-rule="nonzero">
            <polygon id="Path-2" points="16.2928932 8.29289322 17.7071068 9.70710678 12 15.4142136 6.29289322 9.70710678 7.70710678 8.29289322 12 12.5857864"></polygon>
        </g>
        <g id="arrow-down-light" transform="translate(288.000000, 24.000000)" fill="#E0E0E0" fill-rule="nonzero">
            <polygon id="Path-2" points="16.2928932 8.29289322 17.7071068 9.70710678 12 15.4142136 6.29289322 9.70710678 7.70710678 8.29289322 12 12.5857864"></polygon>
        </g>
        <g id="check" transform="translate(312.000000, 24.000000)" fill="#333333" fill-rule="nonzero">
            <polygon id="Path" points="8.56308763 16.1998821 20.6214742 4 22 5.40005893 8.56308763 19 2 12.3500147 3.37852581 10.9499558"></polygon>
        </g>
        <g id="plus" transform="translate(336.000000, 0.000000)" fill="#FFFFFF">
            <g transform="translate(3.000000, 3.000000)">
                <rect id="Rectangle-10" x="8" y="0" width="2" height="18"></rect>
                <rect id="Rectangle-10-Copy" transform="translate(9.000000, 9.000000) rotate(90.000000) translate(-9.000000, -9.000000) " x="8" y="0" width="2" height="18"></rect>
            </g>
        </g>
        <g id="plus" transform="translate(336.000000, 0.000000)" fill="#FFFFFF">
            <g transform="translate(3.000000, 3.000000)">
                <rect id="Rectangle-10" x="8" y="0" width="2" height="18"></rect>
                <rect id="Rectangle-10-Copy" transform="translate(9.000000, 9.000000) rotate(90.000000) translate(-9.000000, -9.000000) " x="8" y="0" width="2" height="18"></rect>
            </g>
        </g>
        <g id="Icon/Twitter-D" transform="translate(360.000000, 0.000000)" fill="#000000">
            <g id="twitter" transform="translate(2.000000, 3.000000)">
                <path d="M20,2.01242697 C19.2641282,2.3537614 18.4733165,2.58445481 17.6432934,2.68820945 C18.490508,2.15704075 19.1410805,1.31598538 19.447456,0.313865459 C18.6546691,0.805628818 17.7765098,1.1628019 16.8418742,1.35531421 C16.0933465,0.521221723 15.0269578,0 13.8468123,0 C11.5806723,0 9.74344344,1.92152688 9.74344344,4.29158602 C9.74344344,4.62794696 9.77980172,4.95550865 9.84973844,5.26960365 C6.43951863,5.09063454 3.41607228,3.38204953 1.39229672,0.785581829 C1.03910165,1.41943397 0.836753359,2.15665818 0.836753359,2.94315819 C0.836753359,4.43206799 1.56121292,5.74568139 2.66220418,6.51527154 C1.98953876,6.49300561 1.35688942,6.29995769 0.803613883,5.97851722 C0.803321266,5.99642179 0.803321266,6.01440287 0.803321266,6.03246046 C0.803321266,8.11183823 2.21771096,9.84643848 4.09480961,10.2406449 C3.75046637,10.3387374 3.38798054,10.3911504 3.01371667,10.3911504 C2.74933245,10.3911504 2.4922638,10.3642935 2.24177914,10.314176 C2.76389041,12.0192414 4.27923479,13.2600123 6.07476498,13.2946736 C4.67047076,14.4456922 2.90120341,15.1318043 0.978821461,15.1318043 C0.64764622,15.1318043 0.32100662,15.1115277 0,15.0718928 C1.81586745,16.2895561 3.97271298,17 6.28991551,17 C13.8372288,17 17.9643732,10.4604731 17.9643732,4.78924106 C17.9643732,4.60315603 17.9604228,4.4180657 17.952522,4.23404657 C18.7541607,3.62896416 19.4498702,2.87307024 20,2.01242697" id="Shape" fill-rule="nonzero"></path>
            </g>
        </g>
        <g id="icon/remove-lt" transform="translate(384.000000, 0.000000)" fill="#FFFFFF">
            <path d="M11,13.0632066 L5,10.8793852 L5.68404029,9 L18.839737,13.788282 L18.1556967,15.6676672 L14,14.1551173 L14,21 L11,21 L11,13.0632066 Z M14,7 L14,10 L11,9 L11,7 L5,7 L5,4 L20,4 L20,7 L14,7 Z" id="Combined-Shape"></path>
        </g>
        <g id="icon/remove-dk" transform="translate(384.000000, 24.000000)" fill="#333333">
            <path d="M11,13.0632066 L5,10.8793852 L5.68404029,9 L18.839737,13.788282 L18.1556967,15.6676672 L14,14.1551173 L14,21 L11,21 L11,13.0632066 Z M14,7 L14,10 L11,9 L11,7 L5,7 L5,4 L20,4 L20,7 L14,7 Z" id="Combined-Shape"></path>
        </g>
        <g id="Icon/Twitter-Dark" transform="translate(360.000000, 24.000000)" fill="#FFFFFF">
            <g id="twitter" transform="translate(2.000000, 3.000000)">
                <path d="M20,2.01242697 C19.2641282,2.3537614 18.4733165,2.58445481 17.6432934,2.68820945 C18.490508,2.15704075 19.1410805,1.31598538 19.447456,0.313865459 C18.6546691,0.805628818 17.7765098,1.1628019 16.8418742,1.35531421 C16.0933465,0.521221723 15.0269578,0 13.8468123,0 C11.5806723,0 9.74344344,1.92152688 9.74344344,4.29158602 C9.74344344,4.62794696 9.77980172,4.95550865 9.84973844,5.26960365 C6.43951863,5.09063454 3.41607228,3.38204953 1.39229672,0.785581829 C1.03910165,1.41943397 0.836753359,2.15665818 0.836753359,2.94315819 C0.836753359,4.43206799 1.56121292,5.74568139 2.66220418,6.51527154 C1.98953876,6.49300561 1.35688942,6.29995769 0.803613883,5.97851722 C0.803321266,5.99642179 0.803321266,6.01440287 0.803321266,6.03246046 C0.803321266,8.11183823 2.21771096,9.84643848 4.09480961,10.2406449 C3.75046637,10.3387374 3.38798054,10.3911504 3.01371667,10.3911504 C2.74933245,10.3911504 2.4922638,10.3642935 2.24177914,10.314176 C2.76389041,12.0192414 4.27923479,13.2600123 6.07476498,13.2946736 C4.67047076,14.4456922 2.90120341,15.1318043 0.978821461,15.1318043 C0.64764622,15.1318043 0.32100662,15.1115277 0,15.0718928 C1.81586745,16.2895561 3.97271298,17 6.28991551,17 C13.8372288,17 17.9643732,10.4604731 17.9643732,4.78924106 C17.9643732,4.60315603 17.9604228,4.4180657 17.952522,4.23404657 C18.7541607,3.62896416 19.4498702,2.87307024 20,2.01242697" id="Shape" fill-rule="nonzero"></path>
            </g>
        </g>
        <g id="plus-dark" transform="translate(336.000000, 24.000000)" fill="#333333">
            <g id="plus" transform="translate(3.000000, 3.000000)">
                <rect id="Rectangle-10" x="8" y="0" width="2" height="18"></rect>
                <rect id="Rectangle-10-Copy" transform="translate(9.000000, 9.000000) rotate(90.000000) translate(-9.000000, -9.000000) " x="8" y="0" width="2" height="18"></rect>
            </g>
        </g>
        <g id="check-light" transform="translate(312.000000, 0.000000)" fill="#E0E0E0" fill-rule="nonzero">
            <polygon id="Path" points="8.56308763 16.1998821 20.6214742 4 22 5.40005893 8.56308763 19 2 12.3500147 3.37852581 10.9499558"></polygon>
        </g>
    </g>
</svg>