<?xml version="1.0" encoding="UTF-8"?>
<svg width="1024px" height="146px" viewBox="0 0 1024 146" version="1.1" xmlns="http://www.w3.org/2000/svg" xmlns:xlink="http://www.w3.org/1999/xlink">
    <!-- Generator: Sketch 51.1 (57501) - http://www.bohemiancoding.com/sketch -->
    <title>Mask</title>
    <desc>Created with Sketch.</desc>
    <defs>
        <path d="M4.9459946,1.01563908 L77.7992457,2.212449 C81.6750844,2.27612004 85.5518101,2.26207355 89.4270857,2.17031799 L156.86774,0.57351418 C159.821983,0.50356607 162.777122,0.478777203 165.732123,0.499156264 L290.848326,1.36201591 C291.035783,1.3633087 291.223241,1.36441973 291.4107,1.36534899 L393.633073,1.87207995 C394.961893,1.8786671 396.290743,1.87612081 397.619529,1.86444124 L523.943572,0.754096135 C526.002364,0.736000061 528.06129,0.739829259 530.12,0.765583077 L642.520355,2.17167632 C644.820221,2.20044692 647.120348,2.20185549 649.420247,2.17590172 L739.639355,1.15780248 C742.597234,1.12442358 745.55545,1.13630321 748.512966,1.19343719 L801.459411,2.21626918 C805.445707,2.29327738 809.433167,2.28806955 813.419248,2.20064899 L910.816941,0.0645758314 C913.796553,-0.000771385215 916.776995,-0.0201825487 919.757205,0.00634925925 L1016.77675,0.870081685 C1020.31322,0.901565727 1023.15458,3.79396739 1023.1231,7.33044162 C1023.12081,7.58706457 1023.1031,7.84331813 1023.07006,8.09781574 L1022.64614,11.3633282 C1022.30989,13.9535098 1022.26977,16.573563 1022.52654,19.1728269 L1022.52654,19.1728269 C1022.78364,21.7753653 1022.80815,24.3956453 1022.59979,27.0025384 L1021.52427,40.4590436 C1021.21231,44.3621482 1021.55101,48.289963 1022.52654,52.0820456 L1022.52654,52.0820456 C1023.50494,55.8853121 1024,59.7967481 1024,63.7238478 L1024,70.2373412 C1024,75.9704931 1023.50703,81.6930284 1022.52654,87.3417156 L1021.94759,90.6771004 C1021.35912,94.0673318 1021.55719,97.5474309 1022.52654,100.848996 L1022.52654,100.848996 C1023.50058,104.166548 1023.85774,107.634646 1023.58028,111.081082 L1022.51711,124.287231 C1022.26702,127.393763 1022.45315,130.520012 1023.07006,133.574925 L1023.31158,134.770864 C1023.76938,137.037884 1024,139.344905 1024,141.657688 L1024,141.657688 C1024,143.536939 1022.47657,145.060373 1020.59732,145.060373 C1020.57254,145.060373 1020.54777,145.060102 1020.52301,145.059561 L970.392953,143.964583 C967.003149,143.89054 963.612307,143.875952 960.221991,143.920826 L869.881737,145.11656 C868.927322,145.129192 867.972851,145.137112 867.018358,145.140321 L800.503759,145.363878 C797.934488,145.372513 795.365215,145.347004 792.796621,145.287358 L749.56494,144.283449 C745.906263,144.198489 742.246306,144.182793 738.587035,144.236368 L648.742389,145.551791 C646.894356,145.578848 645.046106,145.588238 643.197893,145.579959 L545.949243,145.144335 C544.635609,145.138451 543.322029,145.123641 542.008596,145.099906 L459.963813,143.617288 C457.73182,143.576954 455.499435,143.562394 453.267105,143.57361 L342.872629,144.128262 C341.311426,144.136106 339.750311,144.156557 338.189437,144.189613 L255.346331,145.944056 C251.754112,146.020132 248.160789,146.029441 244.568224,145.971979 L192.90052,145.145565 C192.481349,145.138861 192.062163,145.133065 191.642967,145.128178 L81.1340939,143.839961 C78.3173174,143.807126 75.500212,143.815334 72.6836747,143.864583 L8.2602251,144.991073 C4.62763095,145.054591 1.63133967,142.161284 1.5678212,138.528689 C1.55915293,138.032955 1.60655672,137.53783 1.70912951,137.052745 L2.23001238,134.589402 C3.00913109,130.904818 2.82978472,127.081949 1.70912951,123.486491 L1.64269591,123.273348 C0.553837598,119.779906 2.07313465e-15,116.14178 0,112.482579 L0,112.482579 C-2.08114061e-15,108.809247 0.31920228,105.142862 0.954004909,101.524797 L2.01887579,95.4555533 C2.94304014,90.1882678 2.83785289,84.7918127 1.70912951,79.5645419 L1.28913434,77.6194874 C0.43505284,73.6641203 0.209937753,69.5988267 0.622080679,65.5733426 L0.655800495,65.2439943 C1.04695874,61.4234719 1.03565677,57.5724261 0.622080679,53.7542653 L0.622080679,53.7542653 C0.209461463,49.9449386 0.341227459,46.0962694 1.01341319,42.3240828 L1.1656051,41.4700089 C1.93729442,37.1394259 1.98291695,32.71061 1.30060312,28.3650489 L0.717708839,24.6526769 C0.239962369,21.6099766 3.77188565e-16,18.5346792 0,15.4547008 L0,5.8810498 C-3.2911828e-16,3.1935951 2.17861249,1.01498261 4.86606719,1.01498261 C4.89271101,1.01498261 4.91935438,1.01520144 4.9459946,1.01563908 Z" id="path-1"></path>
    </defs>
    <g id="Landing-Page" stroke="none" stroke-width="1" fill="none" fill-rule="evenodd">
        <mask id="mask-2" fill="white">
            <use xlink:href="#path-1"></use>
        </mask>
        <path stroke="#EDEDED" d="M4.93778187,1.51557162 C4.90192614,1.51508078 4.90192614,1.51508078 4.86606719,1.51498261 C2.45475486,1.51498261 0.5,3.46973747 0.5,5.8810498 L0.5,15.4547008 C0.5,18.508709 0.73793902,21.5580757 1.21165716,24.5751201 L1.79455144,28.2874921 C2.48547024,32.687857 2.43927235,37.1725268 1.6578509,41.5577248 L1.50565899,42.4117987 C0.841798113,46.1372676 0.711664006,49.938272 1.11917304,53.7004212 C1.53652034,57.553398 1.54792537,61.4395598 1.15320033,65.2949198 L1.11948051,65.6242681 C0.712690594,69.5974683 0.934881833,73.6099609 1.77787032,77.5139547 L2.19786549,79.4590093 C3.34022215,84.7494177 3.44667991,90.2110538 2.51135304,95.5419602 L1.44648216,101.611204 C0.81668523,105.200739 0.5,108.838213 0.5,112.482579 C0.5,116.091327 1.04620126,119.67929 2.12004635,123.124565 L2.18647995,123.337707 C3.33259291,127.014843 3.51601347,130.924555 2.71919564,134.692842 L2.19831276,137.156185 C2.10353616,137.6044 2.05973536,138.061892 2.06774478,138.519948 C2.12643544,141.876442 4.89498961,144.54984 8.25148358,144.491149 L72.6749331,143.36466 C75.4963266,143.315326 78.3182891,143.307103 81.1399221,143.339995 L191.648795,144.628212 C192.068714,144.633107 192.488622,144.638913 192.908516,144.645629 L244.57622,145.472043 C248.162591,145.529406 251.749719,145.520113 255.335745,145.444168 L338.178851,143.689725 C339.742415,143.656612 341.306222,143.636126 342.870117,143.628269 L453.264593,143.073616 C455.500772,143.062381 457.737005,143.076967 459.972847,143.11737 L542.01763,144.599987 C543.328798,144.623681 544.640113,144.638466 545.951483,144.64434 L643.200133,145.079964 C645.045159,145.088229 646.890223,145.078855 648.73507,145.051845 L738.579716,143.736422 C742.245295,143.682754 745.911563,143.698477 749.576547,143.783584 L792.808229,144.787492 C795.372394,144.847036 797.937237,144.872501 800.502079,144.863881 L867.016678,144.640323 C867.969525,144.637121 868.92235,144.629214 869.875119,144.616603 L960.215374,143.42087 C963.611535,143.375919 967.008223,143.390531 970.403871,143.464702 L1020.53393,144.559681 C1020.56562,144.560257 1020.56562,144.560257 1020.59732,144.560373 C1022.20042,144.560373 1023.5,143.260797 1023.5,141.657688 C1023.5,139.378143 1023.2727,137.104277 1022.82147,134.869838 L1022.57996,133.673899 C1021.9538,130.573234 1021.76489,127.400165 1022.01873,124.247108 L1023.08189,111.040959 C1023.35444,107.655481 1023.0036,104.248725 1022.04679,100.989852 C1021.05587,97.6148132 1020.85339,94.0572677 1021.45495,90.5915897 L1022.03391,87.2562049 C1023.0095,81.6357574 1023.5,75.9418311 1023.5,70.2373412 L1023.5,63.7238478 C1023.5,59.8387693 1023.01024,55.9691869 1022.04231,52.2066165 C1021.05298,48.3608951 1020.70949,44.3775215 1021.02586,40.4192077 L1022.10138,26.9627025 C1022.30737,24.3854385 1022.28314,21.7949397 1022.02896,19.2219809 C1021.76846,16.5849329 1021.80917,13.9267934 1022.1503,11.2989597 L1022.57422,8.03344725 C1022.60468,7.79882106 1022.62101,7.56257604 1022.62312,7.32599047 C1022.65214,4.06564767 1020.03264,1.39908761 1016.7723,1.37006187 L919.752754,0.506329446 C916.777682,0.479843383 913.802379,0.499221079 910.827904,0.564455628 L813.430211,2.70052879 C809.437257,2.78810007 805.442922,2.79331688 801.449754,2.7161759 L748.503308,1.69334392 C745.550892,1.63630845 742.597776,1.6244493 739.644997,1.65777064 L649.425889,2.67586988 C647.122024,2.7018684 644.817932,2.70045741 642.514101,2.6716372 L530.113745,1.26554396 C528.058585,1.23983454 526.003209,1.23601195 523.947967,1.25407682 L397.623923,2.36442192 C396.292847,2.37612163 394.961706,2.37867232 393.630594,2.37207381 L291.408222,1.86534284 C291.220439,1.86441198 291.032658,1.86329904 290.844878,1.86200402 L165.728675,0.999144374 C162.778769,0.978800449 159.828725,1.00354658 156.879575,1.07337409 L89.438921,2.6701779 C85.5569639,2.76209166 81.6735542,2.77616237 77.791033,2.71238155 L4.93778187,1.51557162 Z"></path>
    </g>
</svg>