<svg id="svg" version="1.1" width="915" height="471" xmlns="http://www.w3.org/2000/svg"><path d="M251.904 29.308 C 246.604 31.288,246.543 31.727,246.231 69.946 C 246.072 89.441,245.792 105.541,245.609 105.724 C 245.427 105.907,244.061 105.593,242.574 105.028 C 238.738 103.570,232.717 103.755,230.467 105.401 C 229.298 106.255,227.282 106.596,225.296 106.273 C 222.399 105.803,221.515 106.295,217.270 110.741 C 214.647 113.489,210.812 116.734,208.749 117.951 C 206.686 119.168,204.349 121.092,203.555 122.225 C 202.262 124.070,202.371 124.821,204.595 129.393 L 207.078 134.500 202.696 129.827 C 198.174 125.004,191.507 112.783,190.412 107.310 C 189.917 104.835,190.472 103.159,193.129 99.100 C 194.965 96.295,196.806 94.000,197.220 94.000 C 197.634 94.000,201.558 92.017,205.940 89.593 C 216.302 83.861,220.595 82.419,222.526 84.022 C 224.616 85.756,227.000 84.465,227.000 81.599 C 227.000 78.431,223.233 76.960,221.431 79.425 C 220.760 80.343,219.151 81.287,217.855 81.524 C 216.560 81.760,212.462 83.539,208.748 85.477 C 205.034 87.414,201.751 89.000,201.451 89.000 C 200.794 89.000,207.646 82.186,214.525 76.000 C 218.103 72.783,220.238 71.582,222.015 71.786 C 225.523 72.190,227.404 69.021,225.374 66.124 C 223.640 63.649,222.121 63.460,219.479 65.392 C 217.900 66.546,217.793 67.046,218.852 68.322 C 219.924 69.613,219.756 70.055,217.815 71.071 C 216.542 71.737,212.177 75.238,208.116 78.851 C 203.484 82.972,200.940 84.689,201.291 83.460 C 201.599 82.382,202.135 80.083,202.482 78.352 C 202.872 76.410,203.859 75.009,205.057 74.695 C 207.511 74.054,207.709 69.486,205.322 68.570 C 203.022 67.688,200.748 70.227,200.762 73.661 C 200.768 75.222,200.393 77.224,199.927 78.108 C 199.462 78.992,198.990 81.467,198.878 83.608 C 198.692 87.144,196.410 91.420,192.709 95.163 C 191.983 95.899,191.090 97.287,190.725 98.250 C 188.853 103.195,186.977 96.540,187.022 85.110 C 187.038 81.087,187.597 78.793,189.000 77.000 C 190.076 75.625,190.966 74.141,190.978 73.702 C 191.040 71.472,198.171 62.000,199.788 62.000 C 203.592 62.000,205.410 57.415,202.548 55.040 C 200.444 53.294,197.002 54.704,196.990 57.317 C 196.980 59.686,189.245 72.579,188.364 71.697 C 188.068 71.401,188.354 68.612,189.000 65.500 C 189.646 62.388,189.975 59.642,189.731 59.398 C 188.863 58.529,185.991 69.590,185.748 74.743 C 185.611 77.626,185.031 79.989,184.457 79.993 C 183.883 79.997,181.408 77.862,178.957 75.250 L 174.500 70.500 174.822 62.956 C 175.100 56.439,175.429 55.282,177.240 54.456 C 182.267 52.163,182.123 47.000,177.031 47.000 C 175.364 47.000,173.972 47.112,173.938 47.250 C 173.903 47.388,173.641 51.775,173.355 57.000 C 173.068 62.224,172.657 66.676,172.441 66.892 C 171.305 68.028,169.081 64.525,169.607 62.429 C 170.091 60.503,169.721 59.968,167.524 59.417 C 164.293 58.606,162.715 59.952,163.165 63.135 C 163.384 64.681,164.266 65.609,165.712 65.815 C 166.983 65.995,171.500 70.037,176.329 75.315 L 184.734 84.500 185.262 92.000 C 185.713 98.417,188.843 111.145,191.488 117.320 C 192.180 118.935,191.886 119.070,188.884 118.512 C 187.023 118.167,184.730 117.774,183.789 117.639 C 182.848 117.504,180.888 115.618,179.434 113.447 C 177.980 111.276,175.853 108.482,174.708 107.237 C 173.102 105.490,172.898 104.702,173.813 103.787 C 175.285 102.315,175.358 99.339,173.943 98.465 C 172.297 97.447,168.000 98.877,168.000 100.442 C 168.000 101.215,169.520 103.838,171.377 106.271 C 173.235 108.705,175.516 111.858,176.447 113.279 L 178.140 115.863 170.917 115.448 C 166.105 115.172,163.090 114.486,161.884 113.395 C 159.297 111.054,157.000 112.319,157.000 116.085 C 157.000 119.318,157.171 119.378,162.500 118.018 C 163.050 117.878,164.973 117.816,166.772 117.882 L 170.045 118.000 164.527 123.430 C 159.099 128.773,158.319 131.141,161.577 132.391 C 164.807 133.630,166.513 131.583,166.091 126.977 C 166.014 126.139,167.700 123.746,169.837 121.659 L 173.723 117.864 180.112 119.074 C 193.102 121.534,193.783 121.827,196.878 126.281 C 198.489 128.602,201.255 131.963,203.023 133.750 C 206.619 137.386,206.513 137.670,202.364 135.506 C 200.789 134.685,198.738 134.010,197.806 134.006 C 191.348 133.983,185.027 151.033,188.453 159.234 C 189.902 162.702,192.319 164.156,198.346 165.185 C 199.592 165.398,198.373 166.418,194.596 168.326 C 188.202 171.555,187.919 172.507,190.863 180.866 C 194.130 190.144,195.416 191.199,204.138 191.758 C 209.166 192.081,211.965 191.866,212.424 191.123 C 213.903 188.730,216.000 189.976,216.004 193.250 C 216.008 196.900,219.292 203.000,221.253 203.000 C 221.959 203.000,224.191 204.125,226.215 205.500 C 228.493 207.048,231.296 208.000,233.576 208.000 L 237.257 208.000 236.572 216.750 C 236.195 221.563,235.572 225.817,235.188 226.205 C 234.804 226.593,230.902 223.330,226.517 218.955 C 222.133 214.580,218.218 211.000,217.818 211.000 C 217.418 211.000,216.000 209.988,214.666 208.750 C 213.333 207.512,210.183 205.001,207.667 203.168 C 201.101 198.387,199.205 199.364,195.865 209.250 C 194.400 213.587,192.584 214.318,193.378 210.250 C 193.674 208.738,194.207 204.512,194.563 200.861 L 195.209 194.221 190.855 191.039 C 176.862 180.815,152.697 167.903,150.906 169.694 C 149.369 171.231,148.051 177.685,148.024 183.809 C 148.010 186.847,147.600 188.871,147.064 188.539 C 146.549 188.221,146.080 187.182,146.023 186.230 C 145.966 185.279,145.672 179.932,145.369 174.349 C 144.863 165.014,144.645 164.154,142.659 163.647 C 141.472 163.343,133.300 160.616,124.500 157.585 L 108.500 152.076 107.166 155.236 C 106.294 157.303,106.067 159.972,106.510 162.948 C 107.416 169.040,106.250 167.583,102.454 157.884 L 99.302 149.827 93.901 149.267 C 85.918 148.438,59.965 148.804,56.500 149.793 C 53.862 150.546,53.502 151.094,53.514 154.325 C 53.530 158.636,53.237 158.769,50.532 155.681 C 47.564 152.293,45.645 151.929,42.106 154.081 C 40.371 155.137,38.357 156.000,37.631 156.000 C 36.904 156.000,35.495 156.900,34.500 158.000 C 33.505 159.100,32.267 160.000,31.749 160.000 C 30.112 160.000,19.596 169.265,14.498 175.199 C 6.566 184.431,3.063 191.860,2.289 201.090 C 1.774 207.238,2.003 208.485,4.609 213.706 C 10.775 226.062,30.864 241.922,45.310 245.839 C 49.026 246.847,49.257 246.748,54.653 241.862 C 57.695 239.106,60.381 237.048,60.620 237.287 C 60.860 237.527,60.593 238.939,60.028 240.426 C 59.463 241.913,59.000 244.451,59.000 246.065 C 59.000 247.681,58.461 249.000,57.800 249.000 C 54.474 249.000,60.045 251.600,73.124 256.152 C 96.039 264.127,93.093 263.960,100.283 257.687 C 106.723 252.067,113.000 248.231,113.000 249.915 C 113.000 250.447,112.532 251.171,111.959 251.525 C 110.330 252.532,106.000 259.788,106.000 261.512 C 106.000 262.365,105.325 263.322,104.500 263.638 C 101.160 264.920,103.573 266.741,115.128 271.657 L 127.250 276.814 130.077 273.921 C 132.732 271.205,138.795 267.012,140.079 267.004 C 140.398 267.002,139.395 269.587,137.852 272.750 C 136.308 275.913,135.047 278.950,135.050 279.500 C 135.053 280.050,138.756 282.672,143.278 285.327 C 147.800 287.982,154.514 292.032,158.198 294.327 C 165.516 298.886,165.073 297.956,166.470 311.697 C 167.209 318.961,169.204 327.007,172.852 337.428 C 174.570 342.339,175.754 346.580,175.481 346.852 C 175.209 347.124,173.077 345.933,170.743 344.204 C 168.409 342.476,162.789 338.910,158.253 336.281 L 150.007 331.500 150.003 322.932 C 149.999 312.911,148.375 306.737,143.376 297.743 C 135.176 282.990,132.695 282.535,133.102 295.859 C 133.399 305.578,135.100 314.178,138.040 320.823 C 139.131 323.290,139.886 325.447,139.718 325.615 C 139.550 325.784,136.057 324.628,131.956 323.047 C 127.855 321.465,123.713 319.922,122.750 319.617 C 121.681 319.278,121.000 318.062,121.000 316.492 C 121.000 311.668,116.791 305.508,106.827 295.750 C 96.787 285.917,94.000 284.254,94.000 288.098 C 94.000 290.565,101.528 306.116,104.014 308.785 C 104.958 309.798,106.256 311.610,106.900 312.813 C 107.978 314.828,107.843 315.000,105.175 315.000 C 99.303 315.000,93.000 313.706,93.000 312.501 C 93.000 310.497,83.818 302.600,79.500 300.889 C 73.625 298.562,65.714 295.900,64.038 295.686 C 63.234 295.584,62.420 296.257,62.228 297.181 C 61.829 299.108,66.959 304.211,74.832 309.716 C 77.765 311.767,79.790 313.554,79.332 313.686 C 78.874 313.818,74.017 314.826,68.538 315.926 C 60.593 317.522,58.265 317.679,57.038 316.702 C 53.634 313.993,49.098 312.066,42.538 310.545 C 38.743 309.665,35.011 308.424,34.243 307.787 C 33.168 306.895,32.637 306.959,31.930 308.064 C 31.273 309.091,31.649 309.927,33.247 311.000 C 34.476 311.825,37.116 313.963,39.112 315.750 C 41.109 317.538,43.250 319.000,43.871 319.000 C 46.818 319.000,44.223 320.969,35.906 325.044 C 21.895 331.909,23.024 332.246,39.829 326.218 C 47.999 323.288,48.149 323.272,47.619 325.383 C 45.245 334.841,44.847 338.245,45.986 339.346 C 47.686 340.991,55.583 331.882,57.773 325.751 C 59.612 320.601,59.195 320.801,70.752 319.515 L 76.005 318.930 73.124 324.715 C 69.691 331.608,68.622 335.648,70.004 336.502 C 71.105 337.183,77.294 332.402,85.658 324.409 C 88.588 321.610,91.113 319.446,91.268 319.602 C 91.424 319.757,93.674 319.994,96.268 320.129 C 103.138 320.484,103.800 321.285,100.165 324.839 C 96.907 328.023,90.000 338.220,90.000 339.845 C 90.000 341.867,92.971 341.738,97.788 339.507 C 104.095 336.585,112.609 331.119,116.368 327.578 C 118.166 325.884,119.845 325.110,120.868 325.503 C 121.766 325.848,125.088 326.849,128.250 327.729 C 131.412 328.608,134.000 329.641,134.000 330.025 C 134.000 330.408,131.188 332.550,127.750 334.785 C 124.313 337.020,118.876 341.471,115.668 344.675 C 106.483 353.850,106.469 353.869,107.798 355.198 C 108.697 356.097,110.793 355.946,116.736 354.557 C 126.798 352.204,134.369 348.343,141.245 342.059 C 144.290 339.276,147.076 337.000,147.437 337.000 C 149.262 337.000,174.997 354.973,175.001 356.250 C 175.001 356.387,172.802 356.347,170.114 356.161 C 165.351 355.831,153.065 357.862,144.000 360.479 C 127.007 365.384,124.000 366.468,124.000 367.689 C 124.000 368.424,126.374 370.075,129.275 371.358 C 132.177 372.641,136.481 374.910,138.840 376.399 C 151.602 384.456,169.627 393.479,178.652 396.330 C 191.735 400.463,202.576 402.329,209.375 401.619 C 216.214 400.904,219.484 399.015,213.950 398.976 C 192.209 398.823,171.642 392.104,146.361 376.896 C 141.885 374.203,137.722 372.000,137.111 372.000 C 136.500 372.000,136.000 371.580,136.000 371.067 C 136.000 370.554,135.075 369.841,133.945 369.483 C 129.846 368.182,132.843 366.673,146.044 363.393 C 160.884 359.706,172.665 358.838,179.887 360.899 C 184.475 362.208,192.608 369.676,196.353 376.019 L 198.206 379.158 195.353 377.700 C 193.784 376.897,191.150 375.954,189.500 375.604 C 187.850 375.253,185.375 374.702,184.000 374.378 C 178.619 373.113,163.000 372.743,163.000 373.881 C 163.000 374.496,164.463 375.001,166.250 375.003 C 173.726 375.010,190.129 379.042,196.768 382.504 C 209.803 389.302,218.000 395.156,218.000 397.667 C 218.000 399.209,220.670 399.490,221.167 398.001 C 221.364 397.411,223.652 397.820,226.761 399.001 C 232.641 401.235,239.975 401.625,241.800 399.800 C 242.733 398.867,243.000 398.890,243.000 399.906 C 243.000 400.961,246.898 401.079,263.250 400.518 C 288.805 399.642,333.376 398.962,364.500 398.975 C 392.864 398.986,397.000 398.585,397.000 395.827 C 397.000 394.734,397.456 394.164,398.041 394.525 C 398.613 394.879,398.836 395.943,398.535 396.889 C 398.043 398.440,399.004 398.612,408.245 398.628 C 413.885 398.639,428.625 399.042,441.000 399.526 C 465.072 400.466,497.641 400.415,510.163 399.418 C 517.165 398.860,517.920 398.981,518.907 400.826 C 519.501 401.936,520.558 403.442,521.255 404.172 C 521.953 404.902,524.539 408.650,527.001 412.500 C 531.291 419.207,544.827 438.945,560.090 460.750 C 564.875 467.586,567.892 471.000,569.149 471.000 C 570.674 471.000,570.101 469.808,566.141 464.750 C 561.685 459.057,555.407 449.680,544.217 432.000 C 541.954 428.425,536.264 419.875,531.573 413.000 C 519.463 395.254,511.299 382.913,504.616 372.247 C 501.364 367.058,498.362 363.276,497.779 363.636 C 497.192 364.000,496.948 363.675,497.218 362.889 C 497.481 362.125,496.040 359.025,494.016 356.000 C 491.992 352.975,487.459 345.775,483.942 340.000 C 480.426 334.225,475.400 326.538,472.774 322.918 C 470.148 319.299,468.000 316.010,468.000 315.610 C 468.000 315.210,466.728 313.222,465.172 311.191 C 463.617 309.161,461.824 306.257,461.188 304.737 L 460.031 301.974 462.727 303.737 C 466.351 306.107,465.085 304.186,458.170 296.820 C 451.275 289.477,449.855 287.340,442.180 272.757 C 438.318 265.417,435.994 259.792,435.985 257.757 C 435.973 255.365,435.723 254.889,435.042 255.966 C 434.305 257.132,433.884 256.825,432.986 254.466 C 429.759 245.982,426.292 229.000,427.787 229.000 C 428.233 229.000,429.180 230.609,429.891 232.575 C 430.602 234.541,431.417 235.916,431.702 235.631 C 431.988 235.346,430.636 230.025,428.698 223.806 C 426.760 217.588,424.405 208.900,423.463 204.500 C 422.522 200.100,420.244 192.602,418.402 187.838 C 416.559 183.073,414.749 177.285,414.380 174.974 C 413.735 170.942,413.792 170.818,415.800 171.893 C 417.523 172.815,418.544 172.570,421.586 170.506 C 424.316 168.654,424.779 168.000,423.362 168.000 C 422.308 168.000,420.504 168.659,419.354 169.465 C 418.204 170.270,416.979 170.645,416.631 170.298 C 416.284 169.951,416.000 166.670,416.000 163.008 C 416.000 157.393,416.353 156.018,418.250 154.241 C 421.050 151.618,425.206 150.000,429.142 150.000 C 433.438 150.000,438.407 155.091,437.703 158.773 C 437.419 160.261,437.541 162.159,437.975 162.989 C 438.409 163.820,439.032 166.762,439.360 169.526 C 440.228 176.839,443.808 190.613,446.116 195.524 C 448.333 200.241,458.641 210.926,464.025 214.090 C 466.773 215.705,466.232 214.916,461.434 210.316 C 454.040 203.227,448.000 195.809,448.000 193.818 C 448.000 192.680,449.365 193.017,453.940 195.285 C 459.627 198.104,471.734 199.997,470.414 197.861 C 470.121 197.388,468.896 196.948,467.691 196.884 C 465.678 196.777,465.662 196.732,467.500 196.319 C 472.619 195.169,475.971 193.761,475.480 192.967 C 475.183 192.488,476.991 190.206,479.496 187.897 C 486.100 181.810,491.087 174.575,493.485 167.603 L 495.584 161.500 513.542 160.823 C 523.419 160.451,533.139 159.915,535.142 159.633 L 538.783 159.119 543.318 171.310 C 545.812 178.014,548.623 186.321,549.564 189.770 C 551.095 195.382,551.116 196.220,549.758 197.770 C 548.243 199.498,544.941 205.524,544.980 206.490 C 544.991 206.770,544.963 207.113,544.918 207.250 C 544.873 207.387,544.620 208.850,544.356 210.500 C 544.092 212.150,542.579 217.325,540.993 222.000 C 539.407 226.675,536.311 237.700,534.114 246.500 C 526.177 278.282,525.039 287.561,529.644 282.956 C 530.369 282.231,531.858 283.377,534.521 286.706 C 536.630 289.343,541.425 294.609,545.178 298.408 C 548.930 302.208,552.000 305.479,552.000 305.677 C 552.000 305.876,557.540 311.542,564.310 318.269 C 571.081 324.996,578.825 333.200,581.519 336.500 C 584.212 339.800,589.407 345.650,593.061 349.500 C 596.716 353.350,602.360 359.406,605.603 362.958 C 608.846 366.509,615.046 372.809,619.380 376.958 C 637.605 394.401,693.818 451.375,704.518 463.248 C 710.101 469.444,712.068 470.996,714.334 470.998 C 716.923 471.000,716.095 469.942,704.743 458.750 C 697.910 452.012,686.735 440.425,679.910 433.000 C 673.084 425.575,661.658 413.562,654.518 406.305 C 647.378 399.048,641.390 392.671,641.211 392.134 C 641.032 391.597,643.387 390.846,646.443 390.464 C 649.499 390.082,652.007 389.259,652.015 388.635 C 652.024 387.956,652.377 388.046,652.892 388.859 C 653.592 389.964,656.126 390.055,666.457 389.346 C 679.760 388.434,737.319 388.488,742.500 389.418 C 745.998 390.045,758.621 390.107,768.166 389.543 L 774.833 389.150 775.544 394.323 C 776.468 401.035,784.704 419.771,787.356 421.190 C 790.740 423.002,812.778 424.179,818.500 422.854 C 830.704 420.029,837.000 415.484,837.000 409.501 C 837.000 404.633,830.809 386.933,826.777 380.273 C 824.975 377.296,821.925 373.690,820.000 372.259 C 818.075 370.828,816.313 369.509,816.083 369.328 C 815.854 369.148,815.939 368.728,816.271 368.396 C 816.603 368.064,819.266 368.955,822.187 370.377 C 828.484 373.441,841.096 376.789,849.552 377.642 C 854.384 378.129,855.933 377.924,857.231 376.626 C 858.125 375.732,859.158 375.000,859.525 375.000 C 859.893 375.000,863.340 372.783,867.186 370.074 C 882.246 359.463,883.540 351.308,871.958 340.000 C 868.406 336.532,865.647 334.953,859.925 333.115 C 855.841 331.803,851.600 330.405,850.500 330.008 C 849.249 329.557,851.873 329.011,857.500 328.550 C 869.223 327.591,872.650 325.953,875.413 319.990 C 877.413 315.674,877.512 314.487,876.744 304.021 C 876.116 295.464,875.217 290.864,873.044 285.107 C 868.763 273.763,868.602 273.000,870.489 273.000 C 871.469 273.000,872.932 271.118,874.180 268.250 C 875.316 265.638,877.060 261.681,878.053 259.458 C 879.047 257.236,880.435 253.576,881.137 251.326 C 882.310 247.566,882.858 247.095,887.908 245.503 C 893.798 243.646,899.465 240.420,902.176 237.380 C 904.666 234.587,910.009 222.824,909.305 221.684 C 908.947 221.106,908.240 221.345,907.597 222.262 C 904.013 227.373,903.906 227.494,904.354 225.923 C 904.732 224.599,904.139 224.451,900.652 224.995 C 896.565 225.634,892.843 227.334,888.084 230.737 L 885.668 232.465 886.328 223.982 C 886.691 219.317,886.991 213.363,886.994 210.750 C 887.000 206.214,887.126 206.000,889.804 206.000 C 891.679 206.000,893.612 204.923,895.639 202.750 C 900.511 197.527,904.907 183.297,902.171 181.606 C 901.715 181.324,899.783 182.378,897.878 183.949 L 894.414 186.804 892.093 184.393 C 890.816 183.066,888.698 181.711,887.386 181.382 C 884.396 180.631,884.294 179.242,887.199 178.820 C 889.380 178.503,897.880 168.634,897.959 166.327 C 897.982 165.681,899.175 163.757,900.612 162.050 C 903.103 159.089,903.154 158.801,901.708 155.816 L 900.192 152.687 892.346 152.881 C 888.031 152.988,883.100 153.322,881.389 153.623 C 878.745 154.088,878.185 153.819,877.661 151.835 C 877.235 150.222,877.619 149.036,878.905 148.000 C 881.210 146.142,882.891 142.941,883.479 139.287 C 883.726 137.754,884.385 134.250,884.944 131.500 C 885.502 128.750,885.794 125.150,885.593 123.500 C 885.392 121.850,885.177 119.938,885.114 119.250 C 884.721 114.947,876.010 124.898,873.845 132.121 C 873.206 134.255,872.376 136.000,872.000 136.000 C 871.624 136.000,870.770 134.176,870.102 131.947 C 869.434 129.718,868.333 127.681,867.655 127.421 C 866.977 127.161,866.358 126.100,866.280 125.063 C 866.097 122.635,861.977 116.183,858.634 113.089 C 855.656 110.333,855.646 110.810,859.174 86.500 C 860.292 78.800,861.369 71.375,861.569 70.000 C 862.924 60.653,866.120 49.381,868.874 44.235 C 870.407 41.372,871.147 36.209,870.117 35.572 C 869.627 35.270,868.614 35.761,867.864 36.663 C 867.115 37.566,864.027 40.109,861.001 42.314 C 850.402 50.040,843.027 56.339,842.449 58.162 C 842.128 59.173,841.290 60.000,840.588 60.000 C 839.885 60.000,838.453 60.949,837.405 62.109 C 836.357 63.269,831.867 67.056,827.427 70.525 C 817.850 78.007,811.005 85.303,803.177 96.371 C 793.483 110.077,790.834 114.882,791.912 116.800 C 792.717 118.233,793.152 117.867,794.683 114.468 C 795.683 112.250,800.644 104.594,805.709 97.455 C 813.400 86.614,816.607 83.075,825.158 75.987 C 830.790 71.319,838.796 64.308,842.949 60.406 C 850.967 52.873,865.858 41.525,866.665 42.332 C 866.931 42.597,866.492 44.093,865.691 45.657 C 861.699 53.452,857.257 75.761,854.323 102.750 C 854.009 105.638,853.506 108.000,853.205 108.000 C 852.904 108.000,851.749 107.213,850.640 106.250 C 848.947 104.782,849.005 105.052,851.001 107.921 L 853.380 111.343 851.617 119.921 C 850.648 124.640,848.618 131.601,847.107 135.392 C 844.840 141.076,843.821 142.477,841.288 143.392 C 839.600 144.001,836.870 145.666,835.222 147.090 C 831.767 150.078,825.000 159.199,825.000 160.869 C 825.000 161.491,824.523 162.000,823.941 162.000 C 823.359 162.000,823.112 161.627,823.394 161.172 C 823.675 160.717,824.178 155.429,824.512 149.422 C 825.099 138.842,825.551 133.718,826.443 127.542 C 826.677 125.915,827.159 122.315,827.513 119.542 C 828.722 110.062,837.862 89.251,845.616 78.321 C 848.027 74.922,850.000 71.622,850.000 70.987 C 850.000 65.984,839.248 81.102,831.146 97.500 C 824.226 111.502,818.855 130.513,817.510 145.758 C 817.270 148.488,816.617 152.697,816.061 155.111 C 815.504 157.525,815.038 162.313,815.024 165.750 C 814.996 173.084,814.342 173.383,807.900 169.018 C 801.933 164.974,799.058 165.140,794.200 169.808 C 788.459 175.324,784.950 183.231,782.134 197.000 C 781.402 200.583,781.191 198.444,781.100 186.500 C 780.951 167.029,782.941 142.000,784.638 142.000 C 785.351 142.000,786.178 139.982,786.584 137.250 C 787.200 133.112,789.170 126.506,791.504 120.750 C 791.920 119.725,791.766 119.000,791.133 119.000 C 789.572 119.000,786.938 124.507,784.916 132.000 L 783.161 138.500 783.630 128.000 C 783.888 122.225,784.305 115.250,784.555 112.500 C 787.129 84.293,788.037 75.347,788.427 74.329 C 788.680 73.671,789.374 69.572,789.970 65.220 C 790.566 60.869,792.134 53.902,793.455 49.740 C 796.129 41.317,795.880 38.259,792.453 37.399 C 791.183 37.080,789.912 36.214,789.628 35.474 C 789.254 34.498,787.791 34.272,784.306 34.651 C 777.550 35.385,713.474 35.369,702.000 34.630 C 680.988 33.276,653.148 32.906,531.000 32.362 C 460.875 32.049,395.625 31.754,386.000 31.706 C 376.375 31.658,367.375 31.713,366.000 31.829 C 364.625 31.945,355.850 31.819,346.500 31.548 C 337.150 31.278,318.475 30.771,305.000 30.422 C 291.525 30.073,280.116 29.555,279.647 29.271 C 278.048 28.303,254.510 28.335,251.904 29.308 M382.415 35.553 C 383.226 36.663,385.824 37.220,391.525 37.507 C 410.439 38.458,457.326 39.224,479.000 38.935 C 491.925 38.763,509.102 38.737,517.172 38.877 C 531.803 39.130,531.845 39.125,532.295 36.815 L 532.746 34.500 533.481 36.716 L 534.215 38.931 581.358 38.995 C 645.080 39.081,701.395 40.177,711.128 41.520 C 714.083 41.928,721.000 42.366,726.500 42.493 C 732.000 42.620,739.425 43.278,743.000 43.954 C 747.374 44.782,752.281 44.926,758.000 44.395 C 762.675 43.961,770.213 43.582,774.750 43.553 C 779.288 43.524,783.000 43.195,783.000 42.823 C 783.000 42.451,784.401 41.448,786.113 40.594 C 789.157 39.075,789.214 39.090,788.705 41.270 C 788.419 42.497,787.427 46.875,786.500 51.000 C 784.919 58.030,784.328 61.187,782.008 75.000 C 781.500 78.025,780.825 84.550,780.508 89.500 C 780.191 94.450,779.520 101.200,779.017 104.500 C 778.026 110.995,776.766 130.374,776.447 144.000 C 776.338 148.675,775.789 161.725,775.228 173.000 C 774.667 184.275,774.173 203.400,774.131 215.500 C 774.089 227.600,773.800 241.775,773.487 247.000 C 773.175 252.225,772.707 269.325,772.447 285.000 C 771.878 319.268,771.550 327.368,770.107 342.725 C 769.499 349.201,768.548 360.555,767.995 367.956 C 767.441 375.357,766.518 381.882,765.943 382.456 C 765.271 383.128,760.022 383.329,751.199 383.019 C 743.665 382.755,719.656 382.551,697.846 382.567 C 666.433 382.590,657.861 382.871,656.596 383.920 C 655.408 384.907,655.000 384.935,655.000 384.033 C 655.000 383.183,652.981 382.880,648.250 383.021 C 644.538 383.132,639.175 383.172,636.333 383.111 L 631.166 383.000 618.303 370.250 C 602.916 354.999,584.501 335.849,580.559 331.000 C 578.995 329.075,572.041 321.448,565.107 314.050 C 551.842 299.898,539.735 286.841,534.193 280.710 L 530.886 277.052 531.914 269.661 C 532.480 265.596,534.269 258.176,535.891 253.173 C 537.513 248.170,539.365 241.472,540.008 238.288 C 541.643 230.188,544.936 219.404,547.578 213.500 C 554.893 197.149,554.758 194.497,545.412 170.876 C 540.826 159.285,540.864 159.000,546.969 159.000 C 550.855 159.000,551.818 159.310,551.391 160.423 C 551.081 161.231,551.715 162.312,552.857 162.923 C 555.404 164.286,560.330 164.343,559.500 163.000 C 559.160 162.450,558.009 162.000,556.941 162.000 C 555.873 162.000,555.000 161.566,555.000 161.035 C 555.000 159.124,558.991 158.021,571.141 156.572 C 577.939 155.762,585.975 154.616,589.000 154.026 C 592.025 153.436,596.750 152.699,599.500 152.388 C 602.250 152.076,607.875 150.987,612.000 149.966 C 623.616 147.092,630.046 146.456,631.050 148.081 C 632.230 149.990,630.301 150.966,625.315 150.985 C 623.013 150.993,619.863 151.508,618.315 152.128 C 612.092 154.621,572.406 161.526,561.750 161.969 C 561.337 161.986,561.000 162.512,561.000 163.138 C 561.000 163.936,562.716 164.070,566.750 163.587 C 569.913 163.209,574.750 162.675,577.500 162.401 C 580.250 162.127,583.175 161.656,584.000 161.354 C 584.825 161.053,592.925 159.715,602.000 158.381 C 629.929 154.275,631.405 153.975,633.418 151.995 C 634.944 150.494,635.091 149.815,634.139 148.667 C 633.157 147.484,633.609 146.880,636.665 145.294 C 641.240 142.920,643.865 139.531,644.989 134.549 C 646.164 129.341,644.547 126.299,639.345 123.929 C 635.703 122.270,632.715 121.971,619.283 121.920 C 601.820 121.854,586.168 122.495,572.500 123.834 C 555.592 125.492,534.504 128.106,531.419 128.926 C 528.724 129.643,527.130 129.022,518.701 123.970 C 513.400 120.794,507.956 117.324,506.602 116.259 C 503.595 113.894,496.750 113.406,471.500 113.758 C 441.813 114.171,433.343 116.717,417.404 130.018 C 405.440 140.001,403.083 142.665,403.036 146.250 C 403.016 147.762,402.438 149.040,401.750 149.088 C 401.063 149.137,398.250 149.333,395.500 149.523 C 386.624 150.138,379.941 152.160,378.249 154.743 C 376.828 156.911,376.097 157.096,369.956 156.846 C 365.469 156.663,362.688 157.014,361.622 157.899 C 359.313 159.815,360.730 161.384,363.343 159.804 C 364.560 159.068,367.570 158.633,370.250 158.805 C 374.212 159.059,375.000 159.438,375.000 161.086 C 375.000 162.173,374.438 163.205,373.750 163.380 C 373.063 163.554,370.973 164.200,369.108 164.815 C 366.226 165.765,365.314 165.648,363.049 164.035 C 360.408 162.154,357.659 161.544,353.191 161.844 C 350.026 162.058,351.465 163.995,354.809 164.022 C 356.289 164.034,359.350 164.884,361.612 165.911 C 365.353 167.610,366.204 167.654,371.046 166.398 C 376.081 165.092,376.471 165.129,378.294 167.086 C 380.078 169.001,380.920 169.102,389.659 168.462 L 399.097 167.770 395.965 171.135 C 392.220 175.159,390.618 178.610,390.921 182.000 C 391.192 185.035,393.213 186.711,398.228 188.061 C 401.692 188.994,401.962 189.315,401.370 191.791 C 401.015 193.281,400.336 195.258,399.862 196.184 C 398.201 199.430,398.914 204.789,401.389 207.666 C 403.346 209.941,404.609 210.449,408.370 210.472 C 411.979 210.494,413.299 210.982,414.538 212.750 C 415.719 214.437,417.101 215.000,420.057 215.000 C 422.226 215.000,424.011 215.113,424.024 215.250 C 424.037 215.387,424.464 220.675,424.973 227.000 C 425.531 233.921,426.938 242.030,428.507 247.365 C 433.010 262.673,444.076 284.784,451.129 292.564 C 452.158 293.700,453.000 295.167,453.000 295.825 C 453.000 296.482,454.485 299.153,456.300 301.760 C 458.115 304.367,460.212 308.075,460.959 310.000 C 461.707 311.925,463.312 314.625,464.526 316.000 C 465.739 317.375,469.155 322.446,472.116 327.269 C 475.077 332.092,479.423 339.067,481.774 342.769 C 484.124 346.471,489.013 354.450,492.638 360.500 C 496.263 366.550,502.248 375.775,505.939 381.000 C 509.630 386.225,512.943 391.003,513.302 391.618 C 513.773 392.425,508.101 392.775,492.892 392.878 C 481.308 392.956,471.028 393.450,470.047 393.975 C 469.066 394.500,468.091 394.772,467.881 394.579 C 466.805 393.590,412.857 391.500,397.500 391.853 C 379.339 392.270,331.249 392.927,328.000 392.803 C 322.484 392.591,266.655 392.842,254.779 393.131 C 248.883 393.275,243.811 393.145,243.509 392.842 C 242.829 392.162,241.570 380.753,241.650 376.000 C 241.683 374.075,242.035 365.525,242.432 357.000 C 243.735 329.038,243.666 317.704,242.176 315.282 C 241.071 313.485,240.914 307.365,241.350 283.028 C 241.645 266.508,242.110 252.631,242.383 252.189 C 243.091 251.044,243.845 244.039,244.490 232.616 C 244.797 227.179,245.306 222.313,245.622 221.803 C 245.938 221.292,245.527 220.115,244.710 219.187 C 243.407 217.707,243.395 216.089,244.611 206.000 C 246.888 187.119,250.248 146.355,250.587 133.500 C 250.762 126.900,251.202 119.700,251.566 117.500 C 251.930 115.300,252.384 96.272,252.576 75.215 C 252.769 54.158,253.194 36.495,253.522 35.965 C 254.410 34.528,276.739 34.716,277.222 36.165 C 277.509 37.027,290.439 37.384,326.923 37.538 C 374.030 37.737,376.308 37.663,377.840 35.873 C 379.793 33.594,380.924 33.514,382.415 35.553 M190.627 46.529 C 189.537 49.370,189.944 51.764,191.627 52.410 C 193.987 53.316,196.148 51.077,195.801 48.086 C 195.447 45.044,191.637 43.897,190.627 46.529 M333.094 62.138 C 328.343 63.533,319.438 69.402,317.435 72.458 C 314.723 76.598,316.767 77.959,325.467 77.808 C 331.515 77.702,333.270 78.056,335.871 79.908 C 339.656 82.603,339.716 83.373,336.473 87.624 C 333.614 91.373,330.304 92.492,319.000 93.531 C 314.875 93.910,309.925 94.870,308.000 95.663 C 304.291 97.192,299.484 101.290,297.839 104.324 C 297.016 105.843,297.631 105.712,301.514 103.544 C 306.581 100.715,310.598 99.685,324.774 97.579 C 331.759 96.541,334.871 95.573,337.383 93.657 C 341.573 90.461,344.283 84.975,343.403 81.469 C 342.475 77.772,336.013 73.804,329.975 73.224 C 327.239 72.961,325.000 72.433,325.000 72.050 C 325.000 71.025,332.845 67.337,337.813 66.027 C 341.006 65.184,342.042 64.449,341.804 63.195 C 341.420 61.169,337.862 60.738,333.094 62.138 M670.453 70.458 C 668.519 75.086,669.856 78.000,673.913 78.000 C 677.694 78.000,679.196 75.953,678.815 71.320 C 678.526 67.812,678.233 67.474,675.226 67.185 C 672.298 66.903,671.794 67.249,670.453 70.458 M709.135 81.209 C 706.799 92.443,704.489 98.520,701.662 100.865 C 699.403 102.740,698.687 100.663,699.459 94.480 C 699.872 91.180,699.706 88.319,699.030 87.056 C 697.691 84.553,693.895 84.368,690.434 86.635 C 689.061 87.535,687.839 88.097,687.719 87.885 C 687.598 87.673,687.002 86.600,686.393 85.500 C 685.784 84.400,684.635 83.372,683.840 83.215 C 682.015 82.854,677.755 86.713,676.347 90.000 C 675.759 91.375,674.547 94.188,673.655 96.250 C 671.744 100.665,670.033 101.123,669.919 97.250 C 669.627 87.360,669.467 86.529,667.786 86.202 C 666.595 85.969,665.879 86.727,665.441 88.684 C 664.413 93.271,661.775 100.021,660.765 100.646 C 658.731 101.902,657.536 98.646,657.518 91.803 C 657.507 87.309,657.072 84.526,656.344 84.282 C 655.708 84.070,653.571 85.316,651.594 87.052 L 648.000 90.207 648.000 81.663 C 648.000 76.240,647.575 72.855,646.835 72.398 C 642.946 69.994,616.306 71.039,615.310 73.635 C 614.403 75.999,615.736 76.449,622.800 76.161 L 629.500 75.887 629.500 80.444 C 629.500 82.950,629.189 85.000,628.809 85.000 C 628.429 85.000,628.166 88.938,628.224 93.750 C 628.282 98.563,627.982 103.737,627.556 105.250 C 626.955 107.388,627.124 108.000,628.311 108.000 C 630.595 108.000,632.745 99.928,633.421 88.820 C 633.744 83.496,634.259 78.488,634.565 77.691 C 635.058 76.406,641.848 74.515,642.746 75.412 C 642.939 75.605,642.658 80.043,642.123 85.275 C 641.093 95.343,639.656 99.000,636.728 99.000 C 634.429 99.000,633.280 101.919,635.104 103.125 C 635.872 103.632,637.608 103.856,638.962 103.622 C 640.449 103.365,641.876 103.816,642.567 104.761 C 644.249 107.062,646.621 105.644,647.372 101.888 C 648.063 98.433,650.540 93.997,651.773 94.004 C 652.173 94.007,652.586 95.657,652.691 97.672 C 653.035 104.283,659.777 108.223,663.823 104.177 C 665.402 102.598,665.920 102.535,667.683 103.705 C 669.162 104.688,670.373 104.785,672.109 104.063 C 676.081 102.411,677.575 100.723,679.465 95.750 C 680.459 93.138,681.471 91.000,681.715 91.000 C 681.960 91.000,681.842 93.964,681.454 97.586 C 680.757 104.098,680.775 104.168,683.106 103.836 C 684.812 103.593,686.408 101.787,688.883 97.299 C 693.451 89.016,695.433 88.220,694.494 95.045 C 693.237 104.184,696.876 108.357,703.365 105.216 C 705.345 104.258,706.550 104.150,707.268 104.868 C 709.057 106.657,712.000 104.266,712.000 101.024 C 712.000 96.379,713.518 96.647,718.080 102.096 C 720.427 104.899,723.272 107.535,724.402 107.953 C 728.856 109.601,737.697 104.937,740.871 99.266 C 741.715 97.758,741.990 97.763,744.393 99.338 C 747.329 101.262,747.756 104.101,745.454 106.403 C 744.295 107.562,742.763 107.792,739.338 107.323 C 734.911 106.716,734.803 106.763,735.907 108.826 C 737.346 111.515,742.590 112.982,746.280 111.728 C 750.957 110.139,753.567 102.608,750.718 98.925 C 750.048 98.059,748.263 96.544,746.750 95.560 C 744.826 94.307,744.000 92.925,744.000 90.956 C 744.000 83.605,736.770 84.023,735.423 91.453 C 735.182 92.783,735.438 94.152,735.992 94.495 C 737.666 95.530,737.170 96.606,733.279 100.386 C 729.330 104.221,727.520 104.712,724.840 102.674 C 723.304 101.505,723.320 101.230,725.068 98.956 C 727.731 95.491,727.475 91.748,724.364 88.636 C 721.848 86.121,721.113 85.837,716.500 85.602 C 714.750 85.513,714.548 84.937,714.887 81.000 C 715.718 71.332,715.612 70.516,713.491 70.212 C 711.694 69.954,711.236 71.110,709.135 81.209 M385.426 77.766 C 384.835 78.170,383.773 80.606,383.066 83.180 C 381.688 88.192,378.557 92.361,376.661 91.707 C 375.943 91.459,375.500 88.873,375.500 84.923 C 375.500 79.737,375.184 78.477,373.817 78.209 C 371.849 77.823,370.450 80.086,369.490 85.203 C 369.111 87.219,367.956 89.635,366.922 90.571 C 365.188 92.140,364.993 92.144,364.411 90.629 C 364.064 89.725,364.084 87.368,364.454 85.392 C 365.273 81.030,363.049 78.000,359.029 78.000 C 353.765 78.000,347.164 89.129,351.016 91.510 C 351.575 91.856,351.793 92.526,351.500 93.000 C 350.135 95.208,355.838 96.456,358.069 94.437 C 359.485 93.156,359.891 93.222,361.493 94.992 C 363.685 97.415,366.238 97.545,369.509 95.402 C 371.753 93.932,372.081 93.938,373.628 95.485 C 374.883 96.740,376.217 96.997,378.904 96.501 C 382.369 95.862,382.127 96.195,372.242 105.669 C 366.600 111.076,361.988 116.302,361.992 117.281 C 361.996 118.261,361.323 119.322,360.496 119.640 C 358.609 120.364,355.624 130.366,356.387 133.407 C 358.630 142.342,369.607 144.483,375.769 137.187 C 381.191 130.767,385.678 117.230,386.465 104.917 C 386.689 101.411,387.351 98.383,387.936 98.188 C 388.521 97.993,389.000 97.169,389.000 96.358 C 389.000 95.546,389.404 95.131,389.897 95.436 C 390.390 95.741,392.969 94.193,395.629 91.995 C 398.288 89.798,400.968 88.000,401.584 88.000 C 404.219 88.000,409.511 92.661,409.813 95.247 C 410.268 99.143,406.423 99.858,399.806 97.108 C 396.990 95.938,394.452 95.215,394.166 95.501 C 393.103 96.563,399.227 101.751,402.811 102.825 C 409.658 104.877,415.000 101.600,415.000 95.351 C 415.000 92.705,414.077 91.119,410.581 87.754 C 408.150 85.414,406.007 82.600,405.817 81.500 C 405.295 78.467,399.934 78.748,398.367 81.891 C 397.021 84.591,393.880 87.632,389.599 90.381 L 386.699 92.243 387.478 88.372 C 389.202 79.806,388.412 75.726,385.426 77.766 M358.090 86.264 C 356.826 89.587,355.000 90.690,355.000 88.130 C 355.000 86.207,357.818 82.485,358.647 83.314 C 358.872 83.539,358.621 84.866,358.090 86.264 M721.100 92.100 C 722.658 93.658,722.909 94.491,722.072 95.328 C 721.236 96.164,720.501 96.131,719.222 95.198 C 718.275 94.507,716.703 93.675,715.729 93.349 C 714.351 92.887,714.212 92.450,715.101 91.378 C 716.717 89.431,718.665 89.665,721.100 92.100 M381.557 107.750 C 378.828 123.114,374.787 132.672,369.641 135.931 C 366.636 137.833,366.573 137.832,363.802 135.859 C 360.537 133.534,360.205 130.477,362.658 125.308 C 364.068 122.336,364.106 121.680,362.908 120.922 C 361.661 120.132,362.288 119.599,364.166 119.853 C 364.532 119.903,368.322 116.356,372.589 111.972 C 376.856 107.587,380.769 104.000,381.285 104.000 C 381.820 104.000,381.937 105.609,381.557 107.750 M245.316 109.611 C 245.214 110.650,244.833 118.250,244.468 126.500 C 244.104 134.750,243.444 141.883,243.002 142.350 C 242.561 142.818,242.172 142.143,242.139 140.850 C 242.027 136.488,241.670 135.086,240.810 135.618 C 239.578 136.379,235.950 127.671,234.651 120.835 C 234.008 117.449,233.021 115.000,232.301 115.000 C 229.607 115.000,233.026 128.486,238.065 137.737 C 240.798 142.754,240.838 143.016,239.025 143.987 C 236.322 145.433,235.219 145.248,234.638 143.250 C 234.253 141.923,234.173 141.995,234.307 143.550 C 234.405 144.678,232.988 147.491,231.158 149.800 C 229.329 152.110,228.207 154.032,228.666 154.070 C 229.125 154.109,228.600 154.527,227.500 155.000 C 225.790 155.735,225.754 155.870,227.250 155.930 C 228.310 155.972,229.000 156.789,229.000 158.000 C 229.000 159.833,228.333 160.000,221.020 160.000 C 216.139 160.000,211.533 160.603,209.159 161.553 C 207.025 162.407,203.978 162.894,202.389 162.635 C 200.800 162.376,198.280 162.127,196.789 162.082 C 195.298 162.037,193.117 160.988,191.943 159.750 C 190.135 157.844,189.883 156.647,190.294 151.928 C 190.817 145.903,194.137 138.269,196.651 137.304 C 197.510 136.974,200.302 137.723,202.856 138.967 C 205.410 140.211,209.975 141.875,213.000 142.664 C 216.025 143.453,220.835 145.201,223.688 146.549 C 229.578 149.331,230.446 149.516,229.324 147.750 C 228.888 147.063,228.524 146.063,228.515 145.530 C 228.507 144.996,227.600 144.093,226.500 143.524 C 219.035 139.658,209.286 131.865,207.340 128.208 C 204.889 123.602,204.804 123.753,212.669 118.737 C 214.962 117.275,218.053 114.486,219.538 112.539 C 222.760 108.315,224.217 108.166,228.721 111.601 C 232.431 114.431,234.160 114.087,232.178 110.914 C 230.141 107.652,231.686 106.813,238.856 107.285 C 244.633 107.665,245.476 107.969,245.316 109.611 M861.000 119.723 C 861.000 120.064,861.628 121.053,862.396 121.921 C 863.163 122.790,864.526 125.691,865.424 128.369 C 866.322 131.047,867.531 134.123,868.110 135.205 C 869.521 137.842,868.843 138.274,865.389 136.941 C 863.800 136.327,860.362 135.589,857.750 135.299 C 853.905 134.874,853.000 135.068,853.000 136.320 C 853.000 139.635,868.340 149.574,871.554 148.341 C 872.986 147.791,873.475 148.459,874.361 152.173 C 874.938 154.587,874.637 154.956,871.250 155.996 C 864.220 158.154,862.000 159.242,862.000 160.528 C 862.000 162.226,857.892 161.181,856.340 159.089 C 855.702 158.229,854.915 155.870,854.591 153.846 C 854.203 151.416,852.630 148.737,849.960 145.958 C 846.349 142.200,846.073 141.576,847.382 140.125 C 849.217 138.090,852.445 129.229,853.985 122.000 C 855.827 113.347,855.752 113.440,858.517 116.424 C 859.883 117.898,861.000 119.382,861.000 119.723 M491.113 116.434 C 503.549 116.612,503.781 116.658,507.613 119.674 C 509.751 121.357,513.300 123.678,515.500 124.833 C 520.191 127.295,524.936 130.943,523.500 130.984 C 522.950 131.000,517.456 131.882,511.291 132.943 C 497.791 135.268,480.987 136.625,481.032 135.387 C 481.049 134.899,481.724 133.626,482.532 132.559 C 483.339 131.491,484.000 129.959,484.000 129.154 C 484.000 127.984,483.598 128.054,482.000 129.500 C 480.900 130.495,480.000 131.845,480.000 132.500 C 480.000 134.674,476.565 136.772,471.000 137.996 C 467.975 138.661,464.389 139.047,463.032 138.853 L 460.564 138.500 463.698 135.301 C 466.902 132.031,468.671 128.338,467.564 127.230 C 467.223 126.890,465.598 128.246,463.951 130.243 C 460.713 134.171,451.685 139.000,447.578 139.000 L 445.032 139.000 446.945 135.250 C 448.751 131.709,449.378 129.107,449.115 126.250 C 448.953 124.487,447.000 124.686,447.000 126.465 C 447.000 129.697,443.649 137.668,441.152 140.377 C 436.570 145.347,433.193 146.963,429.835 145.793 C 427.815 145.088,425.587 145.099,422.699 145.826 C 420.389 146.407,416.405 147.120,413.844 147.410 C 409.732 147.875,409.004 147.656,407.616 145.537 C 406.077 143.188,406.183 143.009,412.666 137.069 C 416.309 133.731,419.815 131.000,420.458 131.000 C 421.100 131.000,422.948 129.618,424.563 127.930 C 431.403 120.780,442.224 117.301,460.500 116.375 C 467.100 116.040,472.644 115.637,472.821 115.479 C 472.997 115.321,474.347 115.430,475.821 115.722 C 477.294 116.014,484.176 116.334,491.113 116.434 M223.500 120.000 C 224.495 121.100,225.535 122.000,225.810 122.000 C 226.085 122.000,225.495 121.100,224.500 120.000 C 223.505 118.900,222.465 118.000,222.190 118.000 C 221.915 118.000,222.505 118.900,223.500 120.000 M782.000 122.000 C 782.000 122.550,781.523 123.000,780.941 123.000 C 780.359 123.000,780.160 122.550,780.500 122.000 C 780.840 121.450,781.316 121.000,781.559 121.000 C 781.802 121.000,782.000 121.450,782.000 122.000 M622.785 134.750 C 623.081 145.383,622.895 145.846,618.645 145.083 C 618.174 144.999,617.274 145.346,616.645 145.855 C 616.015 146.364,608.303 147.772,599.506 148.982 C 590.709 150.193,583.200 151.377,582.819 151.612 C 582.437 151.848,578.385 152.500,573.813 153.062 C 569.241 153.624,562.125 154.722,558.000 155.503 C 553.875 156.284,544.200 157.178,536.500 157.489 C 528.800 157.801,519.956 158.321,516.847 158.644 C 511.722 159.177,511.083 159.025,510.008 157.014 C 508.791 154.742,509.099 138.266,510.397 136.166 C 510.754 135.588,513.174 134.822,515.773 134.462 C 518.373 134.103,523.023 133.182,526.106 132.415 C 531.552 131.060,540.246 129.761,552.465 128.479 C 555.746 128.134,558.754 127.652,559.150 127.407 C 559.546 127.163,564.061 126.689,569.185 126.354 C 574.308 126.020,580.300 125.398,582.500 124.972 C 584.700 124.546,594.600 124.265,604.500 124.349 L 622.500 124.500 622.785 134.750 M628.431 133.599 C 629.111 142.864,628.838 145.169,627.250 143.585 C 626.103 142.441,625.648 124.000,626.766 124.000 C 627.294 124.000,628.043 128.320,628.431 133.599 M638.417 125.964 C 642.779 127.834,643.000 128.124,643.000 131.962 C 643.000 135.190,642.279 136.792,639.384 139.997 C 634.682 145.201,631.003 145.532,630.993 140.750 C 630.989 138.963,630.699 134.463,630.348 130.750 C 629.748 124.393,629.831 124.000,631.772 124.000 C 632.906 124.000,635.896 124.884,638.417 125.964 M624.731 139.280 C 624.521 141.601,624.352 139.450,624.355 134.500 C 624.358 129.550,624.530 127.651,624.736 130.280 C 624.943 132.909,624.940 136.959,624.731 139.280 M292.503 133.991 C 291.697 136.530,292.609 138.000,294.992 138.000 C 296.948 138.000,298.583 134.753,297.506 133.009 C 296.430 131.268,293.163 131.910,292.503 133.991 M310.000 135.000 C 307.195 135.898,308.108 136.305,312.300 136.025 C 313.841 135.923,315.641 136.249,316.300 136.750 C 316.960 137.251,322.107 137.718,327.737 137.788 C 333.368 137.859,338.851 138.385,339.921 138.958 C 342.342 140.254,349.241 140.367,347.000 139.074 C 345.038 137.942,325.189 135.857,322.133 136.462 C 320.831 136.720,318.491 136.271,316.933 135.465 C 313.819 133.855,313.617 133.842,310.000 135.000 M654.500 137.113 C 656.150 137.600,659.750 138.010,662.500 138.023 C 671.427 138.067,684.371 138.691,690.000 139.350 L 695.500 139.993 690.000 138.516 C 686.975 137.704,681.800 136.995,678.500 136.941 C 675.200 136.887,667.775 136.704,662.000 136.535 C 654.747 136.322,652.428 136.500,654.500 137.113 M506.000 147.500 C 506.000 154.915,505.697 157.000,504.619 157.000 C 502.947 157.000,501.000 149.857,501.000 143.724 C 501.000 138.858,501.475 138.000,504.167 138.000 C 505.816 138.000,506.000 138.955,506.000 147.500 M495.694 142.500 C 495.381 144.425,495.547 146.000,496.063 146.000 C 496.578 146.000,497.000 144.677,497.000 143.059 C 497.000 137.275,498.730 139.183,499.466 145.779 C 500.777 157.523,500.782 157.477,498.000 157.593 C 496.625 157.651,484.925 158.016,472.000 158.406 C 459.075 158.795,446.783 159.497,444.684 159.966 C 441.535 160.668,440.765 160.527,440.286 159.159 C 439.704 157.497,436.908 151.049,436.261 149.876 C 436.072 149.533,437.069 147.883,438.476 146.211 C 440.257 144.094,442.321 142.952,445.267 142.453 C 454.554 140.881,474.114 139.235,484.881 139.121 L 496.262 139.000 495.694 142.500 M243.501 147.851 C 243.151 148.758,242.666 153.775,242.421 159.000 C 242.177 164.225,241.730 169.999,241.428 171.832 C 240.916 174.940,240.741 175.072,238.819 173.796 C 235.639 171.684,231.998 164.045,232.014 159.515 C 232.036 152.948,233.029 150.986,237.848 147.986 C 242.577 145.043,244.602 144.994,243.501 147.851 M406.000 146.000 C 406.000 146.550,405.523 147.000,404.941 147.000 C 404.359 147.000,404.160 146.550,404.500 146.000 C 404.840 145.450,405.316 145.000,405.559 145.000 C 405.802 145.000,406.000 145.450,406.000 146.000 M842.000 148.155 C 842.000 150.179,842.111 150.210,843.829 148.655 C 844.835 147.745,846.115 147.000,846.674 147.000 C 848.640 147.000,851.142 150.853,852.488 155.956 C 853.237 158.792,854.388 161.762,855.047 162.556 C 856.930 164.826,862.325 164.258,869.188 161.067 C 876.013 157.893,876.248 157.974,877.363 163.879 L 878.002 167.258 873.001 166.629 C 870.250 166.283,865.750 165.717,863.000 165.371 C 857.123 164.632,856.630 165.669,861.078 169.412 C 863.162 171.166,863.727 172.154,862.828 172.472 C 862.098 172.730,860.217 173.410,858.649 173.984 C 847.279 178.145,822.853 201.517,816.195 214.605 C 813.747 219.418,812.170 229.000,813.826 229.000 C 814.422 229.000,815.197 227.313,815.550 225.250 C 816.680 218.630,818.269 215.214,823.207 208.788 C 831.703 197.732,844.939 185.211,854.239 179.431 C 862.731 174.154,866.246 172.971,867.483 174.973 C 867.814 175.508,869.865 176.425,872.042 177.011 C 874.219 177.598,876.000 178.663,876.000 179.378 C 876.000 180.094,877.061 181.162,878.358 181.753 C 880.833 182.881,882.000 186.402,882.000 192.738 C 882.000 196.007,881.827 196.193,879.250 195.691 C 868.462 193.588,861.909 192.758,861.259 193.413 C 860.842 193.835,861.832 195.244,863.461 196.545 C 865.089 197.847,866.214 199.063,865.961 199.247 C 865.707 199.432,863.587 200.808,861.250 202.306 C 858.913 203.803,857.000 205.607,857.000 206.314 C 857.000 208.078,859.071 210.000,860.972 210.000 C 861.837 210.000,864.211 211.374,866.248 213.053 C 869.470 215.709,869.796 216.354,868.753 218.023 C 866.744 221.241,863.136 222.022,843.880 223.407 C 833.691 224.140,824.487 225.213,823.427 225.791 C 820.909 227.165,814.000 234.530,814.000 235.841 C 814.000 236.515,815.099 236.545,817.243 235.930 C 825.089 233.680,833.976 236.032,844.720 243.202 C 855.132 250.151,855.693 251.840,851.463 263.504 C 848.385 271.991,845.428 276.400,838.587 282.702 C 831.172 289.533,818.192 300.170,814.576 302.378 C 812.884 303.411,810.022 305.548,808.215 307.128 C 805.706 309.322,805.352 309.999,806.715 309.996 C 810.628 309.988,836.730 290.056,843.050 282.250 C 844.942 279.913,847.151 278.000,847.958 278.000 C 848.765 278.000,850.412 276.762,851.618 275.250 C 853.463 272.937,854.535 272.515,858.366 272.595 C 860.872 272.647,863.554 273.215,864.327 273.856 C 867.199 276.240,872.105 290.136,873.155 298.865 C 874.585 310.749,874.455 315.220,872.571 318.862 C 870.223 323.404,867.437 324.747,858.736 325.535 C 854.465 325.921,850.722 326.642,850.416 327.135 C 850.111 327.629,849.466 327.788,848.983 327.490 C 848.500 327.191,838.968 326.846,827.802 326.723 C 816.636 326.600,806.893 326.275,806.151 326.000 C 805.218 325.654,804.376 327.123,803.417 330.770 C 801.581 337.751,799.926 340.768,795.532 345.147 C 791.945 348.722,786.139 351.000,780.616 351.000 C 779.242 351.000,777.797 351.520,777.405 352.155 C 776.979 352.844,777.129 353.039,777.776 352.638 C 778.373 352.269,779.118 352.382,779.431 352.889 C 780.198 354.129,788.011 353.043,790.473 351.354 C 791.557 350.609,792.957 350.000,793.584 350.000 C 794.816 350.000,814.000 368.712,814.000 369.914 C 814.000 370.316,815.764 372.124,817.920 373.933 C 820.075 375.741,823.182 379.759,824.823 382.860 C 828.693 390.177,834.000 405.342,834.000 409.086 C 834.000 413.035,830.437 415.965,822.255 418.744 C 816.469 420.708,814.397 420.910,805.574 420.371 C 800.033 420.032,794.375 419.636,793.000 419.491 C 791.625 419.346,789.992 419.177,789.371 419.114 C 788.751 419.051,787.651 417.538,786.928 415.750 C 786.205 413.962,785.363 412.275,785.057 412.000 C 783.954 411.010,779.772 400.414,778.939 396.500 C 778.470 394.300,778.061 390.250,778.028 387.500 C 777.961 381.789,777.317 380.391,774.500 379.840 C 772.539 379.456,772.542 379.412,774.668 377.573 C 776.471 376.012,776.667 375.260,775.838 373.098 C 774.905 370.669,775.466 344.674,776.486 343.023 C 776.724 342.638,777.363 332.524,777.907 320.547 C 778.451 308.570,779.051 298.615,779.242 298.425 C 779.433 298.234,782.538 298.794,786.143 299.669 C 795.927 302.045,800.385 306.702,803.066 317.349 C 804.199 321.849,806.000 323.701,806.000 320.366 C 806.000 317.487,803.695 310.584,801.819 307.846 C 800.818 306.386,800.000 304.698,800.000 304.096 C 800.000 303.493,799.654 303.113,799.231 303.250 C 798.269 303.562,793.000 299.491,793.000 298.435 C 793.000 298.007,793.676 296.910,794.502 295.997 C 796.084 294.250,802.248 277.999,804.553 269.500 C 808.912 253.425,812.138 238.925,812.227 234.999 C 812.354 229.421,809.701 223.627,805.609 220.546 C 802.099 217.903,794.171 215.000,790.465 215.000 C 788.502 215.000,788.000 214.491,788.000 212.500 C 788.000 211.125,787.501 210.000,786.892 210.000 C 786.216 210.000,786.022 210.952,786.395 212.439 C 786.732 213.780,786.613 215.121,786.131 215.419 C 785.087 216.064,784.021 210.278,784.026 204.000 C 784.034 194.027,789.170 179.293,794.920 172.744 C 799.573 167.444,801.190 167.268,807.388 171.382 C 812.242 174.604,813.036 174.829,816.338 173.917 C 820.231 172.842,822.427 170.340,828.070 160.548 C 831.549 154.511,839.098 146.000,840.974 146.000 C 841.538 146.000,842.000 146.970,842.000 148.155 M93.294 153.147 C 96.049 153.839,97.364 154.840,98.095 156.800 C 98.649 158.285,101.168 163.683,103.694 168.796 C 106.992 175.473,108.739 177.999,109.893 177.765 C 110.777 177.585,111.454 176.552,111.397 175.469 C 111.235 172.395,110.046 162.848,109.370 159.201 C 108.775 155.989,108.834 155.920,111.591 156.612 C 114.394 157.316,128.148 162.142,137.174 165.590 C 141.833 167.369,141.846 167.388,141.354 171.437 C 140.322 179.933,146.840 201.000,150.500 201.000 C 151.914 201.000,152.074 199.434,151.806 188.250 C 151.638 181.238,151.872 174.925,152.326 174.223 C 152.947 173.262,156.034 174.484,164.826 179.171 C 171.247 182.595,176.950 185.776,177.500 186.241 C 178.050 186.706,181.425 188.996,185.000 191.330 C 189.048 193.973,191.359 196.126,191.125 197.037 C 190.468 199.604,190.085 228.391,190.670 231.250 C 191.298 234.317,194.000 235.046,194.000 232.148 C 194.000 229.209,199.081 209.785,200.648 206.733 C 202.124 203.859,203.770 203.993,207.172 207.264 C 207.902 207.966,210.791 210.205,213.591 212.239 C 216.390 214.272,222.158 219.438,226.408 223.718 C 233.484 230.845,234.091 231.775,233.627 234.765 C 233.231 237.321,233.658 238.568,235.595 240.505 C 237.898 242.808,238.025 243.448,237.427 249.740 C 237.073 253.458,236.589 257.850,236.350 259.500 C 236.112 261.150,235.749 266.775,235.543 272.000 C 235.337 277.225,235.130 282.288,235.084 283.250 C 234.952 286.005,233.430 285.341,228.966 280.579 C 226.687 278.147,222.094 274.210,218.759 271.829 C 215.425 269.448,211.784 266.488,210.668 265.250 C 209.552 264.012,208.217 263.000,207.702 263.000 C 207.186 263.000,205.307 261.762,203.526 260.250 C 197.196 254.874,190.214 249.720,189.536 249.924 C 189.158 250.038,188.095 249.298,187.174 248.280 C 184.993 245.869,172.424 237.000,171.187 237.000 C 170.663 237.000,169.986 236.055,169.684 234.899 C 169.382 233.744,168.705 233.064,168.181 233.388 C 167.656 233.713,166.671 233.308,165.991 232.489 C 165.311 231.670,164.360 231.000,163.878 231.000 C 163.395 231.000,162.132 230.213,161.072 229.250 C 157.834 226.311,156.112 225.000,155.494 225.000 C 154.975 225.000,141.986 217.494,135.000 213.158 C 133.625 212.305,131.825 211.531,131.000 211.439 C 130.175 211.347,127.025 210.356,124.000 209.237 C 111.305 204.539,78.864 195.681,70.500 194.628 C 68.850 194.420,64.575 193.701,61.000 193.031 C 53.107 191.550,34.755 190.936,31.130 192.033 C 28.934 192.697,29.324 192.861,33.500 193.028 C 38.629 193.233,40.823 193.432,49.500 194.478 C 52.250 194.810,54.725 195.051,55.000 195.013 C 55.275 194.976,57.750 195.628,60.500 196.462 C 63.250 197.296,66.970 197.983,68.767 197.989 C 72.971 198.003,102.865 205.740,118.975 210.984 C 131.167 214.952,145.909 222.399,157.608 230.500 C 164.668 235.388,187.631 252.233,189.970 254.239 C 190.779 254.933,194.379 257.605,197.970 260.178 C 201.562 262.750,205.400 265.690,206.500 266.711 C 207.600 267.732,210.545 269.972,213.044 271.690 C 215.543 273.407,218.996 276.128,220.717 277.736 C 222.438 279.343,226.286 282.889,229.268 285.614 L 234.690 290.569 235.397 299.285 C 235.786 304.078,235.855 308.000,235.550 308.000 C 235.245 308.000,233.534 306.490,231.748 304.645 C 220.585 293.115,204.305 279.866,186.218 267.590 C 183.863 265.992,176.877 260.367,170.693 255.092 C 164.509 249.816,157.435 243.925,154.974 242.001 C 149.553 237.761,147.567 235.578,144.967 231.000 C 139.411 221.218,136.989 218.979,135.673 222.409 C 135.147 223.779,139.643 231.785,142.597 234.739 C 143.405 235.547,144.966 237.849,146.067 239.854 C 147.167 241.859,149.367 245.525,150.955 248.000 C 152.543 250.475,153.878 253.087,153.921 253.805 C 153.965 254.523,154.842 256.998,155.870 259.305 C 161.200 271.258,163.213 277.745,163.659 284.400 C 163.920 288.305,164.315 292.063,164.536 292.750 C 165.227 294.902,163.591 294.165,155.315 288.592 C 150.897 285.618,145.419 282.234,143.141 281.072 C 140.864 279.910,139.000 278.279,139.000 277.447 C 139.000 276.616,141.025 272.862,143.500 269.105 C 145.975 265.348,148.000 261.988,148.000 261.637 C 148.000 259.226,139.147 263.209,131.446 269.085 L 126.391 272.942 117.446 269.060 C 109.766 265.727,108.537 264.866,108.759 262.971 C 109.056 260.443,113.306 254.626,119.876 247.756 C 123.068 244.418,124.099 242.699,123.354 241.954 C 121.310 239.910,105.713 248.458,96.097 256.892 C 93.008 259.602,92.427 259.565,83.218 256.076 C 78.973 254.468,72.350 252.124,68.500 250.869 C 64.650 249.614,61.386 248.528,61.247 248.457 C 60.727 248.191,64.968 236.863,66.660 233.999 C 70.952 226.733,62.717 229.689,52.545 239.066 C 48.177 243.091,47.997 243.155,44.290 241.980 C 38.667 240.197,26.286 232.756,19.796 227.259 C 12.984 221.489,9.011 216.223,6.494 209.628 C 4.880 205.398,4.780 203.913,5.733 198.348 C 7.749 186.582,18.078 173.117,32.362 163.636 C 35.414 161.609,38.163 159.545,38.470 159.049 C 38.777 158.552,40.644 157.613,42.619 156.961 C 46.195 155.781,46.231 155.798,50.683 160.888 C 53.143 163.699,55.973 166.000,56.972 166.000 C 58.579 166.000,58.676 165.566,57.812 162.250 C 55.352 152.808,55.205 153.234,61.149 152.584 C 64.092 152.262,68.075 151.871,70.000 151.716 C 75.545 151.267,89.139 152.102,93.294 153.147 M221.861 152.107 C 220.936 152.693,221.540 152.974,223.750 152.985 C 225.537 152.993,227.000 152.827,227.000 152.617 C 227.000 151.707,223.102 151.321,221.861 152.107 M293.223 152.557 C 290.308 154.598,290.412 156.568,293.541 158.619 C 295.576 159.952,296.572 160.061,298.541 159.163 C 301.985 157.594,301.922 153.301,298.435 151.975 C 295.284 150.777,295.854 150.713,293.223 152.557 M412.667 152.575 C 413.454 154.626,411.240 162.000,409.837 162.000 C 409.141 162.000,409.206 162.543,410.020 163.524 C 410.716 164.362,411.090 165.244,410.851 165.482 C 410.613 165.721,404.513 166.137,397.296 166.406 C 382.709 166.951,383.000 167.079,383.000 160.109 C 383.000 153.682,384.072 153.092,397.500 152.138 C 404.100 151.668,410.077 151.220,410.781 151.142 C 411.486 151.064,412.335 151.709,412.667 152.575 M494.981 153.523 C 493.924 154.796,493.986 154.943,495.359 154.416 C 496.261 154.069,497.000 153.384,497.000 152.893 C 497.000 151.607,496.421 151.788,494.981 153.523 M298.000 154.000 C 298.000 154.550,297.363 155.000,296.583 155.000 C 295.804 155.000,294.966 155.563,294.720 156.250 C 294.475 156.938,293.923 157.173,293.494 156.774 C 293.066 156.375,293.284 155.362,293.980 154.524 C 295.402 152.810,298.000 152.471,298.000 154.000 M382.256 159.750 C 381.710 167.453,381.539 167.877,380.084 165.157 C 379.078 163.277,379.088 161.954,380.135 158.409 C 380.851 155.984,381.713 154.000,382.051 154.000 C 382.388 154.000,382.481 156.588,382.256 159.750 M221.750 155.662 C 222.438 155.940,223.563 155.940,224.250 155.662 C 224.938 155.385,224.375 155.158,223.000 155.158 C 221.625 155.158,221.063 155.385,221.750 155.662 M892.385 157.440 C 892.081 158.232,890.846 159.526,889.640 160.316 C 888.435 161.106,886.570 163.383,885.497 165.376 C 884.423 167.369,883.253 169.000,882.896 169.000 C 882.538 169.000,881.572 166.322,880.747 163.049 C 879.018 156.184,878.889 156.312,887.719 156.116 C 891.880 156.024,892.825 156.292,892.385 157.440 M307.441 158.431 C 305.671 159.736,305.856 159.814,309.553 159.326 C 312.556 158.928,314.467 159.313,316.930 160.811 C 319.122 162.144,321.318 162.670,323.377 162.355 C 325.095 162.091,330.320 162.316,334.989 162.854 C 339.658 163.392,344.134 163.465,344.935 163.016 C 346.577 162.098,337.171 160.878,326.272 160.597 C 322.428 160.497,317.826 159.682,315.628 158.711 C 310.919 156.630,309.930 156.597,307.441 158.431 M367.000 162.000 C 365.835 162.753,366.128 162.973,368.309 162.985 C 369.930 162.994,370.857 162.577,370.500 162.000 C 369.733 160.758,368.921 160.758,367.000 162.000 M230.000 162.862 C 230.000 163.337,228.605 165.474,226.899 167.612 C 225.194 169.751,222.703 173.653,221.365 176.284 C 220.027 178.915,218.047 181.953,216.966 183.034 C 215.885 184.115,215.000 185.378,215.000 185.839 C 215.000 187.192,210.183 189.000,206.578 189.000 C 199.078 189.000,196.865 187.949,194.871 183.440 C 193.834 181.097,192.717 177.837,192.389 176.197 C 191.825 173.377,192.140 173.022,198.146 169.705 C 201.641 167.776,205.957 165.893,207.739 165.522 C 209.520 165.150,211.234 164.431,211.548 163.923 C 211.861 163.415,214.143 163.000,216.618 163.000 C 219.363 163.000,220.877 163.390,220.500 164.000 C 219.724 165.256,219.696 165.260,224.500 163.529 C 229.259 161.814,230.000 161.725,230.000 162.862 M636.336 163.567 C 635.497 165.753,637.391 167.328,639.899 166.532 C 643.010 165.545,642.673 162.000,639.469 162.000 C 638.076 162.000,636.667 162.705,636.336 163.567 M640.000 164.000 C 640.000 164.550,639.550 165.000,639.000 165.000 C 638.450 165.000,638.000 164.550,638.000 164.000 C 638.000 163.450,638.450 163.000,639.000 163.000 C 639.550 163.000,640.000 163.450,640.000 164.000 M214.000 166.000 C 212.625 167.076,211.879 167.966,212.342 167.978 C 212.806 167.990,214.329 167.100,215.727 166.000 C 217.126 164.900,217.872 164.010,217.385 164.022 C 216.898 164.034,215.375 164.924,214.000 166.000 M477.833 166.032 C 479.300 166.049,481.400 166.759,482.500 167.609 C 483.887 168.681,484.040 169.095,483.000 168.959 C 479.983 168.565,478.000 169.027,478.000 170.124 C 478.000 170.874,479.822 171.097,483.482 170.793 C 488.245 170.398,488.802 170.533,487.732 171.823 C 487.054 172.639,486.630 174.075,486.789 175.012 C 487.429 178.787,473.283 191.887,466.814 193.511 C 463.589 194.320,452.231 191.519,449.794 189.314 C 447.773 187.484,442.000 176.394,442.000 174.340 C 442.000 173.507,443.230 172.977,445.250 172.939 C 449.642 172.856,460.545 169.245,456.833 169.103 C 455.367 169.046,453.970 168.438,453.729 167.750 C 453.409 166.834,452.765 166.967,451.317 168.250 C 450.231 169.213,448.230 170.000,446.871 170.000 C 445.512 170.000,443.885 170.515,443.255 171.145 C 442.396 172.004,441.942 171.619,441.435 169.598 C 441.064 168.118,441.070 166.596,441.450 166.217 C 441.829 165.837,447.157 165.355,453.290 165.145 C 463.542 164.794,464.331 164.896,463.078 166.406 C 460.949 168.971,462.521 169.434,468.494 168.001 C 472.231 167.105,474.025 166.170,474.079 165.090 C 474.130 164.057,474.335 163.938,474.662 164.750 C 474.940 165.438,476.367 166.014,477.833 166.032 M650.000 164.717 C 650.000 165.827,651.381 166.080,659.500 166.460 C 680.938 167.462,691.015 168.075,694.632 168.596 C 696.904 168.924,699.009 168.795,699.308 168.310 C 699.608 167.825,699.099 167.383,698.177 167.327 C 697.254 167.271,692.450 166.924,687.500 166.556 C 674.224 165.569,664.825 165.033,662.000 165.100 C 656.667 165.228,655.409 165.142,652.750 164.466 C 651.189 164.069,650.000 164.178,650.000 164.717 M470.000 165.383 C 470.000 165.594,468.875 165.982,467.500 166.245 C 466.125 166.508,465.000 166.335,465.000 165.861 C 465.000 165.388,466.125 165.000,467.500 165.000 C 468.875 165.000,470.000 165.173,470.000 165.383 M413.683 168.188 C 413.364 168.985,413.127 168.748,413.079 167.583 C 413.036 166.529,413.272 165.939,413.604 166.271 C 413.936 166.603,413.972 167.466,413.683 168.188 M410.567 170.892 C 410.269 171.373,410.632 173.782,411.373 176.245 L 412.721 180.723 409.376 183.391 C 405.914 186.154,401.467 186.917,397.000 185.515 C 391.309 183.729,391.580 179.200,397.751 172.965 C 401.301 169.377,403.386 168.080,406.001 167.832 C 409.416 167.508,411.709 169.044,410.567 170.892 M233.968 173.534 C 233.986 174.103,235.350 175.366,237.000 176.341 C 239.949 178.083,240.000 178.253,239.976 186.307 C 239.949 195.344,238.538 203.038,236.694 204.210 C 234.515 205.595,230.304 205.027,227.727 203.000 C 226.329 201.900,224.711 201.000,224.131 201.000 C 222.208 201.000,219.000 196.662,219.001 194.061 C 219.001 189.138,223.166 179.903,228.842 172.236 C 231.084 169.208,231.356 169.100,232.598 170.736 C 233.334 171.706,233.951 172.965,233.968 173.534 M207.872 172.750 C 206.629 174.336,206.664 174.371,208.250 173.128 C 209.916 171.821,210.445 171.000,209.622 171.000 C 209.415 171.000,208.627 171.787,207.872 172.750 M292.667 172.667 C 291.324 174.009,292.053 177.738,294.004 179.504 C 296.745 181.984,301.000 180.192,301.000 176.557 C 301.000 173.147,294.991 170.342,292.667 172.667 M471.750 173.758 C 470.238 174.696,468.988 175.922,468.974 176.482 C 468.960 177.042,467.273 178.243,465.224 179.151 C 451.887 185.062,449.157 186.445,449.555 187.089 C 450.225 188.173,457.025 185.920,460.982 183.303 C 462.897 182.036,464.967 181.000,465.582 181.000 C 466.197 181.000,468.564 179.650,470.841 178.000 C 473.119 176.350,475.999 174.986,477.241 174.968 C 478.484 174.951,480.374 174.276,481.441 173.468 C 483.241 172.107,483.059 172.002,478.941 172.027 C 476.499 172.041,473.262 172.820,471.750 173.758 M298.000 175.441 C 298.000 177.233,296.348 178.333,294.951 177.470 C 294.235 177.027,294.273 176.376,295.074 175.411 C 296.585 173.590,298.000 173.605,298.000 175.441 M309.250 178.639 C 308.563 178.929,308.000 179.467,308.000 179.833 C 308.000 180.546,308.453 180.587,325.956 181.453 C 332.257 181.765,339.007 182.472,340.956 183.026 C 342.905 183.579,349.900 184.210,356.500 184.428 L 368.500 184.824 358.500 183.887 C 353.000 183.372,346.250 182.490,343.500 181.927 C 340.750 181.364,333.100 180.513,326.500 180.037 C 319.900 179.560,313.600 178.932,312.500 178.641 C 311.400 178.349,309.938 178.349,309.250 178.639 M450.920 179.850 C 452.412 182.638,453.960 183.440,455.287 182.113 C 456.610 180.790,455.518 179.533,452.164 178.518 C 450.055 177.879,449.934 178.009,450.920 179.850 M230.508 183.962 C 230.151 185.591,230.326 187.728,230.899 188.712 C 231.726 190.134,231.945 189.528,231.970 185.750 C 232.004 180.327,231.455 179.654,230.508 183.962 M636.385 183.765 C 635.771 184.169,634.958 185.498,634.578 186.717 C 634.012 188.532,634.352 189.050,636.456 189.578 C 639.562 190.358,642.026 188.580,641.932 185.628 C 641.865 183.526,641.851 183.527,640.780 185.750 C 639.524 188.354,638.452 188.619,637.649 186.526 C 637.337 185.714,637.849 184.606,638.792 184.057 C 640.156 183.262,640.198 183.058,639.000 183.046 C 638.175 183.037,636.998 183.361,636.385 183.765 M891.738 187.801 C 892.341 189.324,888.259 194.000,886.326 194.000 C 885.384 194.000,885.000 192.391,885.000 188.443 L 885.000 182.887 888.112 184.693 C 889.823 185.687,891.455 187.085,891.738 187.801 M417.004 194.500 C 418.765 200.000,420.836 206.201,421.607 208.280 C 422.847 211.627,422.828 212.129,421.440 212.661 C 416.405 214.594,412.420 207.370,416.251 203.254 C 417.400 202.019,418.078 200.745,417.756 200.423 C 416.634 199.301,413.265 201.946,412.035 204.916 C 410.934 207.573,410.441 207.843,407.648 207.317 C 403.597 206.556,401.000 204.274,401.000 201.478 C 401.000 198.366,405.038 189.001,406.383 188.995 C 406.997 188.992,408.850 187.908,410.500 186.585 C 412.150 185.262,413.568 184.251,413.652 184.340 C 413.735 184.428,415.244 189.000,417.004 194.500 M647.667 186.667 C 646.484 187.850,646.958 188.953,648.410 188.396 C 649.185 188.099,651.098 188.484,652.660 189.253 C 655.419 190.611,676.245 191.088,677.511 189.823 C 678.159 189.174,663.077 187.835,662.078 188.452 C 659.709 189.916,655.545 189.693,652.685 187.949 C 649.188 185.817,648.653 185.681,647.667 186.667 M426.000 188.000 C 424.172 189.181,425.751 189.181,428.500 188.000 C 429.819 187.433,429.989 187.122,429.000 187.086 C 428.175 187.055,426.825 187.467,426.000 188.000 M679.000 188.796 C 679.000 189.233,680.688 189.689,682.750 189.808 C 685.531 189.969,686.112 189.767,685.000 189.028 C 683.205 187.834,679.000 187.672,679.000 188.796 M422.565 191.895 C 421.516 193.592,425.094 193.967,428.293 192.496 C 430.587 191.441,430.788 191.199,429.000 191.648 C 427.625 191.992,425.864 192.514,425.086 192.807 C 424.187 193.146,423.935 192.914,424.395 192.170 C 424.793 191.526,424.668 191.000,424.118 191.000 C 423.568 191.000,422.869 191.403,422.565 191.895 M872.656 204.551 C 874.496 205.954,877.573 207.759,879.495 208.562 L 882.990 210.023 882.398 219.761 C 881.628 232.433,881.472 233.506,880.400 233.468 C 878.779 233.410,864.000 225.581,864.000 224.781 C 864.000 224.351,864.415 224.000,864.923 224.000 C 866.943 224.000,872.000 218.706,872.000 216.591 C 872.000 214.133,868.841 210.991,863.483 208.119 C 859.737 206.111,860.054 205.101,865.054 203.104 C 868.618 201.680,868.984 201.750,872.656 204.551 M781.868 207.668 C 782.001 210.236,782.581 213.218,783.158 214.295 C 784.121 216.095,783.043 217.924,780.982 217.985 C 780.591 217.996,780.541 204.584,780.928 203.250 C 781.287 202.008,781.667 203.795,781.868 207.668 M800.018 220.624 C 805.884 222.971,809.910 229.308,809.306 235.241 C 808.607 242.097,803.032 264.780,799.780 274.000 C 798.132 278.675,796.174 284.426,795.430 286.780 C 794.686 289.134,793.273 292.509,792.289 294.280 C 791.305 296.051,790.422 297.653,790.328 297.839 C 790.233 298.026,787.687 297.626,784.669 296.950 L 779.184 295.723 778.522 288.111 C 778.157 283.925,778.115 279.079,778.428 277.342 C 779.089 273.666,780.106 250.865,780.393 233.287 C 780.502 226.570,780.796 220.894,781.046 220.674 C 784.284 217.818,792.948 217.795,800.018 220.624 M641.917 221.410 C 641.374 221.945,625.426 225.508,621.750 225.917 C 621.337 225.963,621.000 226.675,621.000 227.500 C 621.000 229.213,621.986 229.304,627.277 228.075 L 631.053 227.199 630.395 230.849 C 629.435 236.173,628.276 237.903,625.221 238.572 C 620.678 239.566,620.000 239.891,620.000 241.078 C 620.000 241.793,621.307 242.066,623.504 241.810 C 627.437 241.351,627.481 242.054,623.955 249.047 C 622.972 250.997,621.834 254.372,621.427 256.547 C 620.775 260.024,620.870 260.348,622.215 259.234 C 623.056 258.537,625.232 254.487,627.050 250.234 C 630.951 241.109,631.697 240.000,633.931 240.000 C 634.859 240.000,636.491 239.311,637.559 238.469 C 639.435 236.990,639.416 236.947,637.000 237.189 C 633.177 237.571,632.022 236.409,632.964 233.126 C 634.308 228.438,635.967 226.000,637.813 226.000 C 639.872 226.000,644.000 223.293,644.000 221.943 C 644.000 220.990,642.685 220.654,641.917 221.410 M280.000 223.330 C 274.754 224.694,274.943 223.475,276.763 244.232 C 277.923 257.451,278.968 261.429,280.612 258.878 C 281.576 257.383,281.546 236.724,280.572 231.535 C 280.014 228.556,280.214 228.270,283.587 227.235 C 287.772 225.950,290.266 226.670,294.772 230.462 C 301.154 235.832,299.553 244.261,290.445 253.250 C 285.311 258.317,285.604 258.942,291.928 256.412 C 298.920 253.615,304.585 243.509,303.381 235.981 C 302.636 231.324,297.788 225.227,293.357 223.376 C 289.466 221.750,286.125 221.739,280.000 223.330 M685.000 223.000 C 685.000 223.550,684.419 224.000,683.709 224.000 C 682.999 224.000,681.119 226.565,679.532 229.699 C 677.315 234.077,676.542 237.194,676.198 243.141 L 675.750 250.883 671.855 252.441 C 666.732 254.491,663.681 254.410,661.655 252.171 C 659.154 249.407,659.650 248.361,663.261 248.782 C 666.965 249.215,671.411 246.361,672.294 242.985 C 672.912 240.622,669.640 237.000,666.888 237.000 C 662.996 237.000,656.000 245.250,656.000 249.839 C 656.000 251.264,655.069 251.952,652.483 252.437 C 650.549 252.800,648.556 252.844,648.055 252.534 C 647.554 252.224,646.844 252.916,646.478 254.070 C 645.941 255.762,645.297 256.040,643.161 255.504 C 640.403 254.812,638.000 253.228,638.000 252.101 C 638.000 251.741,639.726 251.612,641.836 251.813 C 645.138 252.128,646.043 251.738,648.336 249.013 C 652.777 243.735,651.260 239.660,645.120 240.374 C 637.325 241.282,631.863 252.429,637.138 256.662 C 639.840 258.830,642.997 259.148,646.161 257.570 C 647.891 256.706,650.215 256.000,651.325 256.000 C 652.435 256.000,654.115 255.301,655.059 254.447 C 656.618 253.036,657.084 253.081,660.138 254.943 C 664.372 257.524,668.952 257.553,674.173 255.031 C 677.816 253.270,678.472 253.217,680.347 254.531 C 683.190 256.522,685.824 256.378,690.283 253.989 C 693.805 252.101,694.189 252.078,696.539 253.617 C 698.316 254.782,700.266 255.093,703.261 254.692 C 708.191 254.031,711.000 251.172,711.000 246.815 C 711.000 244.313,710.385 243.591,707.048 242.176 C 703.817 240.806,703.194 240.109,703.629 238.359 C 703.922 237.182,703.656 235.905,703.037 235.523 C 701.322 234.463,699.125 236.821,698.026 240.902 C 696.273 247.412,686.805 254.149,682.665 251.832 C 681.136 250.977,681.206 250.597,683.424 247.688 C 686.826 243.228,690.979 234.014,690.990 230.899 C 691.007 226.418,688.978 222.000,686.902 222.000 C 685.856 222.000,685.000 222.450,685.000 223.000 M862.688 233.504 C 868.335 242.048,873.066 247.000,875.583 247.000 C 876.735 247.000,876.953 247.580,876.428 249.250 C 875.108 253.451,870.641 262.483,867.791 266.716 C 865.155 270.629,864.756 270.858,862.236 269.900 C 860.743 269.332,858.054 269.143,856.260 269.479 C 852.393 270.205,852.320 269.785,855.100 262.787 C 856.255 259.879,857.182 255.717,857.160 253.539 C 857.126 250.200,856.467 248.975,852.965 245.742 C 844.709 238.118,831.796 232.066,823.691 232.021 C 821.175 232.007,820.113 231.626,820.563 230.898 C 822.124 228.372,828.605 226.918,840.786 226.362 C 847.779 226.043,853.703 225.590,853.951 225.356 C 855.401 223.990,858.006 226.420,862.688 233.504 M687.353 230.750 C 686.727 235.637,682.816 244.084,680.169 246.267 C 677.761 248.252,679.513 236.894,682.533 230.934 C 685.869 224.352,688.184 224.263,687.353 230.750 M315.000 241.501 C 314.272 242.377,312.700 242.663,310.539 242.313 C 307.482 241.817,307.059 242.074,305.489 245.382 C 303.378 249.831,304.115 254.859,307.446 258.732 C 312.049 264.084,322.529 260.988,324.983 253.551 C 325.939 250.655,325.804 249.535,324.091 246.178 C 321.779 241.647,316.943 239.159,315.000 241.501 M332.365 243.433 C 328.957 246.648,328.758 247.165,329.252 251.547 C 329.968 257.898,332.725 261.417,337.289 261.807 C 341.737 262.187,345.281 260.383,350.690 254.987 L 354.880 250.808 357.543 253.277 C 359.839 255.406,360.045 256.047,359.038 257.930 C 357.533 260.740,354.143 261.987,351.111 260.844 C 347.491 259.480,347.149 260.868,350.413 263.677 C 352.690 265.637,354.000 266.050,356.413 265.568 C 360.354 264.781,363.620 261.406,364.490 257.220 C 365.106 254.257,364.743 253.534,360.715 249.720 C 358.264 247.399,355.975 244.675,355.629 243.667 C 354.647 240.808,352.823 242.167,349.716 248.071 C 346.739 253.731,341.310 257.592,337.390 256.837 C 334.379 256.257,334.725 253.640,338.063 251.752 C 340.761 250.227,341.120 249.528,340.891 246.252 C 340.389 239.097,337.851 238.258,332.365 243.433 M669.000 241.845 C 669.000 243.607,665.069 246.147,662.832 245.830 L 660.500 245.500 662.750 243.250 C 664.940 241.060,669.000 240.148,669.000 241.845 M314.837 246.462 C 318.084 245.126,319.296 245.534,320.236 248.282 C 322.227 254.103,314.494 259.564,310.771 254.966 C 308.534 252.203,308.527 249.652,310.746 246.265 C 312.208 244.033,312.547 243.888,312.833 245.374 C 313.067 246.589,313.698 246.931,314.837 246.462 M647.000 244.977 C 647.000 245.514,645.852 246.706,644.449 247.626 C 641.263 249.713,638.976 248.167,641.507 245.636 C 643.290 243.852,647.000 243.408,647.000 244.977 M705.435 244.975 C 708.522 246.149,708.656 247.344,706.000 250.000 C 704.677 251.323,702.667 252.000,700.059 252.000 C 695.107 252.000,694.514 251.071,697.580 248.120 C 698.911 246.838,700.000 245.387,700.000 244.895 C 700.000 243.725,702.233 243.758,705.435 244.975 M162.387 252.364 C 173.430 262.245,183.161 270.030,187.000 272.055 C 193.755 275.617,220.973 297.981,229.071 306.622 C 237.451 315.564,237.151 314.420,236.938 336.672 C 236.833 347.577,236.837 359.762,236.948 363.750 C 237.169 371.740,235.880 373.240,233.941 367.250 C 233.273 365.188,231.656 361.363,230.347 358.750 C 229.037 356.137,228.424 354.000,228.983 354.000 C 229.559 354.000,230.000 351.400,230.000 348.000 C 230.000 341.067,228.508 340.034,227.459 346.240 L 226.743 350.480 223.509 343.490 C 221.730 339.646,219.599 334.475,218.774 332.000 C 217.862 329.264,216.730 327.589,215.887 327.727 C 215.124 327.852,212.729 325.377,210.564 322.227 C 206.663 316.550,206.630 316.423,206.803 307.698 C 206.985 298.527,205.721 296.707,204.558 304.464 C 204.187 306.933,203.500 309.191,203.030 309.481 C 202.340 309.908,199.978 307.340,195.290 301.067 C 195.112 300.828,194.434 301.166,193.783 301.817 C 193.132 302.468,190.777 303.032,188.550 303.070 L 184.500 303.140 190.000 305.042 C 193.025 306.088,195.590 306.956,195.700 306.972 C 196.203 307.043,208.000 324.430,208.000 325.102 C 208.000 325.519,206.567 325.449,204.816 324.947 C 199.827 323.516,200.417 324.480,206.703 328.028 C 209.890 329.826,213.031 332.018,213.684 332.899 C 215.552 335.420,222.000 348.556,222.000 349.841 C 222.000 350.479,220.537 351.045,218.750 351.100 C 216.963 351.155,214.375 351.560,213.000 352.000 C 210.672 352.746,210.733 352.807,213.884 352.900 C 215.745 352.955,219.051 353.534,221.229 354.187 C 224.683 355.222,225.510 356.086,227.684 360.937 C 232.513 371.708,236.789 385.552,237.208 391.771 L 237.631 398.042 233.694 397.454 C 228.481 396.677,219.123 392.485,218.402 390.604 C 218.086 389.782,214.961 386.098,211.458 382.418 C 207.954 378.737,203.231 373.200,200.961 370.113 C 198.691 367.026,193.966 362.250,190.462 359.500 C 185.621 355.701,183.387 353.058,181.163 348.500 C 173.790 333.389,170.585 322.337,169.563 308.500 C 169.238 304.100,168.762 299.375,168.506 298.000 C 168.250 296.625,167.591 291.000,167.043 285.500 C 166.038 275.405,164.034 268.991,157.096 253.657 C 155.393 249.893,154.000 246.631,154.000 246.407 C 154.000 245.219,155.944 246.599,162.387 252.364 M175.042 278.337 C 174.992 279.330,183.722 292.070,187.738 296.866 C 189.554 299.034,191.238 300.101,192.470 299.864 C 194.079 299.554,193.420 298.386,188.311 292.498 C 177.734 280.306,175.084 277.478,175.042 278.337 M623.485 279.024 C 622.222 281.067,624.072 286.000,626.101 286.000 C 628.764 286.000,630.749 281.607,629.025 279.530 C 627.578 277.786,624.428 277.499,623.485 279.024 M627.771 280.813 C 627.989 281.466,627.454 282.000,626.583 282.000 C 625.712 282.000,625.000 281.288,625.000 280.417 C 625.000 278.651,627.153 278.958,627.771 280.813 M645.000 281.954 C 644.175 282.512,642.487 282.976,641.250 282.985 C 640.013 282.993,639.000 283.450,639.000 284.000 C 639.000 285.469,641.675 285.220,645.140 283.428 C 646.812 282.563,648.927 282.166,649.840 282.545 C 650.753 282.924,657.575 283.345,665.000 283.481 C 676.526 283.692,677.623 283.588,672.500 282.773 C 666.055 281.747,662.523 281.532,657.000 281.829 C 655.075 281.933,651.925 281.775,650.000 281.478 C 648.075 281.181,645.825 281.395,645.000 281.954 M289.239 289.648 C 286.980 290.591,285.731 293.971,287.053 295.564 C 289.878 298.967,295.459 296.268,294.827 291.805 C 294.503 289.518,291.928 288.525,289.239 289.648 M294.000 293.109 C 294.000 294.889,290.542 293.577,290.172 291.656 C 289.872 290.096,290.121 289.995,291.911 290.952 C 293.060 291.567,294.000 292.538,294.000 293.109 M289.382 294.552 C 289.723 295.442,289.555 295.843,288.989 295.493 C 288.445 295.157,288.000 294.459,288.000 293.941 C 288.000 292.503,288.717 292.820,289.382 294.552 M307.000 295.046 C 305.882 295.802,306.189 295.901,308.202 295.434 C 309.764 295.072,313.123 295.544,316.163 296.554 C 320.284 297.923,325.370 298.343,339.656 298.494 C 349.684 298.600,358.477 298.314,359.195 297.859 C 360.481 297.043,337.841 296.298,327.046 296.800 C 323.898 296.947,319.980 296.409,317.776 295.527 C 313.386 293.771,309.163 293.582,307.000 295.046 M623.557 300.223 C 621.339 303.388,621.622 304.867,624.585 305.611 C 628.083 306.489,630.338 304.193,629.450 300.656 C 628.623 297.360,625.712 297.146,623.557 300.223 M627.869 301.342 C 629.190 302.934,628.374 304.000,625.833 304.000 C 624.042 304.000,623.340 301.994,624.667 300.667 C 625.677 299.657,626.638 299.859,627.869 301.342 M645.027 303.092 C 643.667 303.647,640.742 303.801,638.527 303.436 C 636.312 303.071,634.847 303.132,635.270 303.573 C 636.281 304.624,664.000 305.197,664.000 304.167 C 664.000 303.731,661.413 303.401,658.250 303.432 C 655.087 303.464,651.375 303.173,650.000 302.787 C 648.625 302.400,646.387 302.537,645.027 303.092 M666.813 303.683 C 667.534 303.972,668.397 303.936,668.729 303.604 C 669.061 303.272,668.471 303.036,667.417 303.079 C 666.252 303.127,666.015 303.364,666.813 303.683 M290.750 312.080 C 287.300 314.090,289.306 319.000,293.578 319.000 C 297.159 319.000,298.544 316.478,296.595 313.505 C 294.827 310.806,293.495 310.481,290.750 312.080 M295.000 315.000 C 295.000 315.550,294.550 316.000,294.000 316.000 C 293.450 316.000,293.000 315.550,293.000 315.000 C 293.000 314.450,293.450 314.000,294.000 314.000 C 294.550 314.000,295.000 314.450,295.000 315.000 M305.889 317.944 C 303.269 320.126,303.922 320.690,306.910 318.824 C 308.399 317.894,309.724 318.005,313.259 319.355 C 316.140 320.455,321.770 321.219,329.113 321.507 C 335.376 321.752,343.875 322.153,348.000 322.399 C 355.115 322.822,355.218 322.799,350.000 321.953 C 340.964 320.486,323.688 319.141,320.888 319.686 C 319.452 319.966,316.977 319.533,315.388 318.724 C 310.015 315.988,308.397 315.855,305.889 317.944 M623.966 322.064 C 622.495 324.812,624.306 327.000,628.051 327.000 C 631.722 327.000,634.528 324.341,632.912 322.394 C 632.276 321.627,631.270 321.000,630.678 321.000 C 629.963 321.000,629.997 321.397,630.776 322.176 C 632.297 323.697,630.533 326.000,627.846 326.000 C 625.433 326.000,624.391 323.439,626.011 321.487 C 626.825 320.506,626.875 320.000,626.158 320.000 C 625.560 320.000,624.573 320.929,623.966 322.064 M30.000 323.000 C 30.000 323.550,30.450 324.000,31.000 324.000 C 31.550 324.000,32.000 323.550,32.000 323.000 C 32.000 322.450,31.550 322.000,31.000 322.000 C 30.450 322.000,30.000 322.450,30.000 323.000 M674.470 323.204 C 672.837 323.661,668.728 323.754,665.339 323.411 C 661.598 323.031,657.789 323.245,655.639 323.954 C 653.329 324.717,650.956 324.815,648.800 324.238 C 644.833 323.177,640.830 324.006,640.162 326.028 C 639.766 327.225,639.954 327.270,641.166 326.270 C 642.048 325.542,645.488 325.064,649.579 325.100 C 667.901 325.260,697.918 324.415,698.615 323.718 C 699.045 323.288,696.946 323.212,693.949 323.549 C 690.952 323.886,686.012 323.759,682.970 323.267 C 679.929 322.775,676.104 322.746,674.470 323.204 M52.345 325.543 C 52.019 326.392,51.538 326.872,51.276 326.610 C 51.014 326.348,51.096 325.653,51.459 325.067 C 52.445 323.471,53.021 323.781,52.345 325.543 M807.594 329.994 C 808.795 331.195,811.136 331.265,821.245 330.400 C 826.065 329.988,831.346 330.201,835.231 330.966 C 838.664 331.641,843.499 332.417,845.976 332.689 C 848.453 332.961,854.072 334.319,858.464 335.706 C 864.834 337.719,867.228 339.057,870.309 342.328 C 881.078 353.763,879.028 359.302,859.412 371.767 C 853.432 375.567,851.940 375.657,839.739 372.950 C 825.317 369.750,813.908 363.738,803.838 354.031 C 800.967 351.264,798.254 349.000,797.809 349.000 C 796.283 349.000,797.003 347.268,799.913 343.935 C 802.891 340.524,806.436 331.515,805.437 329.898 C 804.685 328.681,806.355 328.755,807.594 329.994 M22.000 338.000 C 22.000 338.550,22.450 339.000,23.000 339.000 C 23.550 339.000,24.000 338.550,24.000 338.000 C 24.000 337.450,23.550 337.000,23.000 337.000 C 22.450 337.000,22.000 337.450,22.000 338.000 M289.088 340.394 C 288.197 341.468,288.285 342.142,289.471 343.329 C 293.534 347.391,298.286 346.118,296.194 341.527 C 294.903 338.693,291.014 338.073,289.088 340.394 M12.000 341.059 C 12.000 341.641,12.450 341.840,13.000 341.500 C 13.550 341.160,14.000 340.684,14.000 340.441 C 14.000 340.198,13.550 340.000,13.000 340.000 C 12.450 340.000,12.000 340.477,12.000 341.059 M294.000 342.059 C 294.000 342.577,293.550 343.000,293.000 343.000 C 292.450 343.000,292.000 342.298,292.000 341.441 C 292.000 340.584,292.450 340.160,293.000 340.500 C 293.550 340.840,294.000 341.541,294.000 342.059 M313.500 345.099 C 317.589 346.405,322.208 346.993,328.000 346.945 C 332.675 346.906,339.365 347.170,342.868 347.532 C 347.627 348.023,349.052 347.893,348.508 347.014 C 348.079 346.318,346.762 346.094,345.286 346.464 C 343.913 346.809,340.700 346.408,338.145 345.574 C 335.590 344.739,332.825 344.195,332.000 344.365 C 324.222 345.963,321.170 346.004,317.124 344.561 C 314.718 343.702,311.568 343.041,310.124 343.091 C 308.314 343.154,309.361 343.777,313.500 345.099 M350.000 347.224 C 350.000 347.651,351.800 348.000,354.000 348.000 C 356.200 348.000,358.000 347.822,358.000 347.605 C 358.000 347.388,356.200 347.038,354.000 346.829 C 351.800 346.619,350.000 346.797,350.000 347.224 " stroke="none" fill="black" fill-rule="evenodd"/></svg>