<?xml version="1.0" encoding="UTF-8"?>
<svg width="143px" height="69px" viewBox="0 0 143 69" version="1.1" xmlns="http://www.w3.org/2000/svg" xmlns:xlink="http://www.w3.org/1999/xlink">
    <!-- Generator: Sketch 51.1 (57501) - http://www.bohemiancoding.com/sketch -->
    <title>uxem-sprite</title>
    <desc>Created with Sketch.</desc>
    <defs></defs>
    <g id="uxem-sprite" stroke="none" stroke-width="1" fill="none" fill-rule="evenodd">
        <g id="Group-7">
            <g id="BG-Icon-2" transform="translate(0.000000, 20.000000)">
                <g id="Group-2">
                    <polygon id="Triangle" fill="#D8D8D8" transform="translate(28.783171, 24.370749) rotate(-60.000000) translate(-28.783171, -24.370749) " points="28.7831715 11.3420644 45.7831715 37.3994327 11.7831715 37.3994327"></polygon>
                    <path d="M16.5,32.5 C7.663444,32.5 0.5,25.336556 0.5,16.5 C0.5,7.663444 7.663444,0.5 16.5,0.5 C25.336556,0.5 32.5,7.663444 32.5,16.5 C32.5,25.336556 25.336556,32.5 16.5,32.5 Z M16.5,31.5 C24.7842712,31.5 31.5,24.7842712 31.5,16.5 C31.5,8.21572875 24.7842712,1.5 16.5,1.5 C8.21572875,1.5 1.5,8.21572875 1.5,16.5 C1.5,24.7842712 8.21572875,31.5 16.5,31.5 Z" id="Oval" fill="#0F0F0F" fill-rule="nonzero"></path>
                </g>
            </g>
            <g id="BG-Icon-2-Copy" transform="translate(72.000000, 44.500000) rotate(90.000000) translate(-72.000000, -44.500000) translate(47.500000, 21.500000)">
                <g id="Group-2">
                    <polygon id="Triangle" fill="#D8D8D8" transform="translate(28.783171, 24.370749) rotate(-60.000000) translate(-28.783171, -24.370749) " points="28.7831715 11.3420644 45.7831715 37.3994327 11.7831715 37.3994327"></polygon>
                    <path d="M16.5,32.5 C7.663444,32.5 0.5,25.336556 0.5,16.5 C0.5,7.663444 7.663444,0.5 16.5,0.5 C25.336556,0.5 32.5,7.663444 32.5,16.5 C32.5,25.336556 25.336556,32.5 16.5,32.5 Z M16.5,31.5 C24.7842712,31.5 31.5,24.7842712 31.5,16.5 C31.5,8.21572875 24.7842712,1.5 16.5,1.5 C8.21572875,1.5 1.5,8.21572875 1.5,16.5 C1.5,24.7842712 8.21572875,31.5 16.5,31.5 Z" id="Oval" fill="#0F0F0F" fill-rule="nonzero"></path>
                </g>
            </g>
            <g id="Group-6" transform="translate(95.000000, 0.000000)">
                <polygon id="Triangle-[-33-3-4--12]" fill="#D8D8D8" transform="translate(28.519597, 45.700909) rotate(-390.000000) translate(-28.519597, -45.700909) " points="28.5195974 34 44.0391948 57.4018189 13 57.4018189"></polygon>
                <ellipse id="Oval-2" fill="#D8D8D8" transform="translate(24.967460, 15.098381) rotate(-330.000000) translate(-24.967460, -15.098381) " cx="24.9674605" cy="15.0983811" rx="10.49375" ry="10.5061728"></ellipse>
                <path d="M6.1223131,19.4797526 L6.1223131,45.8007403 L35.1473131,45.8007403 L35.1473131,19.4797526 L6.1223131,19.4797526 Z M5.1223131,18.4797526 L36.1473131,18.4797526 L36.1473131,46.8007403 L5.1223131,46.8007403 L5.1223131,18.4797526 Z" id="Rectangle-4" fill="#242424" fill-rule="nonzero" transform="translate(20.634813, 32.640246) rotate(-660.000000) translate(-20.634813, -32.640246) "></path>
            </g>
            <path d="M0,0 L8.647487,0 L8.647487,1.06741573 C8.02980627,1.46067612 7.31854822,1.73220899 6.51369151,1.88202247 L6.51369151,12.6966292 C6.51369151,13.6142368 6.61663675,14.3820194 6.82253033,15 C7.02842391,15.6179806 7.32790098,16.1189119 7.72097054,16.502809 C8.11404009,16.886706 8.58665235,17.1629205 9.13882149,17.3314607 C9.69099063,17.5000008 10.3133414,17.5842697 11.0058925,17.5842697 C11.6235733,17.5842697 12.1897721,17.4953192 12.7045061,17.3174157 C13.21924,17.1395122 13.6684556,16.8539346 14.0521664,16.4606742 C14.4358771,16.0674138 14.7306749,15.5524376 14.9365685,14.9157303 C15.142462,14.279023 15.2454073,13.492514 15.2454073,12.5561798 L15.2454073,2.02247191 C14.8149025,1.92883848 14.3703662,1.79775365 13.9117851,1.62921348 C13.4532039,1.46067331 13.0741783,1.27340927 12.7746967,1.06741573 L12.7746967,0 L19.7376083,0 L19.7376083,1.06741573 C19.4006916,1.31086264 19.0263452,1.50748989 18.6145581,1.65730337 C18.2027709,1.80711685 17.8003486,1.92883848 17.407279,2.02247191 L17.407279,12.5842697 C17.407279,14.9812854 16.7755696,16.8024282 15.5121317,18.0477528 C14.2486939,19.2930774 12.4658694,19.9157303 10.1636049,19.9157303 C7.65544673,19.9157303 5.71820441,19.3539382 4.35181976,18.2303371 C2.98543511,17.106736 2.30225303,15.3090011 2.30225303,12.8370787 L2.30225303,1.88202247 C1.92790107,1.82584242 1.53483741,1.72752879 1.12305026,1.58707865 C0.711263106,1.44662851 0.336916763,1.27340927 0,1.06741573 L0,0 Z M32.0911612,0 L39.0540728,0 L39.0540728,1.06741573 C38.7733088,1.21722921 38.4785111,1.36704045 38.1696707,1.51685393 C37.8608303,1.66666742 37.5192393,1.78838904 37.1448873,1.88202247 L32.1473137,9.21348315 L37.9590988,17.7808989 C38.3896035,17.8745323 38.7779879,17.9915723 39.1242634,18.1320225 C39.470539,18.2724726 39.8027714,18.4269654 40.1209705,18.5955056 L40.1209705,19.6629213 L31.0242634,19.6629213 L31.0242634,18.5955056 C31.323745,18.4269654 31.6372601,18.2724726 31.964818,18.1320225 C32.292376,17.9915723 32.6433257,17.8745323 33.0176776,17.7808989 L29.0308492,11.6011236 L25.3247834,17.8089888 C25.7178529,17.8651688 26.0828406,17.9588008 26.4197574,18.0898876 C26.7566741,18.2209744 27.0842272,18.3895121 27.4024263,18.5955056 L27.4024263,19.6629213 L20.2149047,19.6629213 L20.2149047,18.5955056 C20.8325854,18.2209719 21.4689742,17.949439 22.1240901,17.7808989 L27.7674177,9.7752809 L22.4890815,1.88202247 C22.1334471,1.78838904 21.7965354,1.66666742 21.4783362,1.51685393 C21.1601371,1.36704045 20.8513013,1.21722921 20.5518198,1.06741573 L20.5518198,0 L29.4519931,0 L29.4519931,1.06741573 C29.2273819,1.19850253 28.9466221,1.33426896 28.6097054,1.4747191 C28.2727886,1.61516924 27.8797249,1.75093567 27.4305026,1.88202247 L30.8558059,7.52808989 L34.2249567,1.88202247 C33.8506047,1.80711573 33.4762584,1.6900757 33.1019064,1.53089888 C32.7275545,1.37172205 32.3906427,1.21722921 32.0911612,1.06741573 L32.0911612,0 Z M53.962565,17.3033708 C53.8128242,17.6217244 53.5741784,17.9447549 53.2466205,18.2724719 C52.9190625,18.6001889 52.5166402,18.8904482 52.0393414,19.1432584 C51.5620427,19.3960687 51.0098818,19.6020591 50.3828423,19.761236 C49.7558028,19.9204128 49.0773,20 48.3473137,20 C47.1868226,20 46.1573702,19.8267808 45.2589255,19.4803371 C44.3604808,19.1338934 43.6117881,18.6376437 43.012825,17.991573 C42.4138618,17.3455024 41.9599669,16.5730382 41.6511265,15.6741573 C41.3422862,14.7752764 41.1878683,13.7640506 41.1878683,12.6404494 C41.1878683,10.2434337 41.8148984,8.41760927 43.0689775,7.16292135 C44.3230565,5.90823343 46.063767,5.28089888 48.2911612,5.28089888 C49.2457587,5.28089888 50.1395106,5.41198371 50.9724437,5.6741573 C51.8053768,5.9363309 52.4979175,6.3670382 53.0500867,6.96629213 C53.6022558,7.56554607 53.9859608,8.35205506 54.2012132,9.3258427 C54.4164655,10.2996303 54.4024276,11.488757 54.1590988,12.8932584 L45.539688,12.8932584 C45.5584056,14.3726666 45.9374313,15.5524301 46.6767764,16.4325843 C47.4161215,17.3127385 48.5064053,17.752809 49.9476603,17.752809 C50.565341,17.752809 51.2064092,17.659177 51.8708839,17.4719101 C52.5353586,17.2846433 53.0547642,17.0412 53.4291161,16.741573 L53.962565,17.3033708 Z M48.1788562,6.88202247 C47.8045042,6.88202247 47.4722718,6.94756489 47.182149,7.07865169 C46.8920263,7.20973848 46.6393425,7.44850014 46.4240901,7.79494382 C46.2088377,8.1413875 46.0357026,8.60954761 45.9046794,9.1994382 C45.7736562,9.78932879 45.6800696,10.5337034 45.6239168,11.4325843 L50.1441941,11.4325843 C50.2752173,9.97190281 50.1909894,8.84831854 49.8915078,8.06179775 C49.5920262,7.27527697 49.0211481,6.88202247 48.1788562,6.88202247 Z M72.0717504,19.6629213 L65.0526863,19.6629213 L65.0526863,18.5674157 C65.2398623,18.4550556 65.4504321,18.3380156 65.6844021,18.2162921 C65.9183721,18.0945687 66.1757352,17.9868919 66.4564991,17.8932584 L66.4564991,12.3033708 C66.4564991,11.4419433 66.4331025,10.7116135 66.3863085,10.1123596 C66.3395145,9.51310562 66.2412486,9.0215375 66.0915078,8.63764045 C65.941767,8.2537434 65.7358765,7.97284733 65.4738302,7.79494382 C65.2117838,7.61704031 64.8748721,7.52808989 64.4630849,7.52808989 C63.8641218,7.52808989 63.3447162,7.75748834 62.9048527,8.21629213 C62.4649891,8.67509593 62.1421154,9.27902247 61.9362218,10.0280899 L61.9362218,17.8932584 C62.441597,18.0430719 62.9095299,18.2677888 63.3400347,18.5674157 L63.3400347,19.6629213 L56.040208,19.6629213 L56.040208,18.5674157 C56.3022543,18.4363289 56.5923728,18.3146073 56.9105719,18.2022472 C57.2287711,18.0898871 57.5563241,17.9868919 57.8932409,17.8932584 L57.8932409,7.61235955 L56.040208,7.38764045 L56.040208,6.29213483 C56.3396895,6.16104803 56.7093566,6.0393264 57.1492201,5.92696629 C57.5890837,5.81460618 58.0429786,5.71629256 58.5109185,5.63202247 C58.9788585,5.54775239 59.4327534,5.47752837 59.872617,5.42134831 C60.3124805,5.36516826 60.6821475,5.31835225 60.9816291,5.28089888 L61.9362218,5.28089888 L61.9362218,8.45505618 L61.9642981,8.45505618 C62.2637797,7.57490197 62.7925439,6.82584579 63.5506066,6.20786517 C64.3086693,5.58988455 65.2211385,5.28089888 66.2880416,5.28089888 C66.7372639,5.28089888 67.1771209,5.32771489 67.6076256,5.42134831 C68.0381304,5.51498174 68.4358734,5.68820098 68.8008666,5.94101124 C69.1658597,6.19382149 69.4793748,6.54494157 69.7414211,6.99438202 C70.0034675,7.44382247 70.1906407,8.02434101 70.3029463,8.73595506 C70.639863,7.70598736 71.2013826,6.87266236 71.9875217,6.23595506 C72.7736608,5.59924775 73.728244,5.28089888 74.8512998,5.28089888 C75.5438509,5.28089888 76.1568431,5.3698493 76.6902946,5.54775281 C77.2237462,5.72565632 77.6729618,6.0393236 78.0379549,6.48876404 C78.4029481,6.93820449 78.6790285,7.54681264 78.8662045,8.31460674 C79.0533805,9.08240084 79.1469671,10.0561739 79.1469671,11.2359551 L79.1469671,17.8932584 C79.7833654,18.0056185 80.4010369,18.2303354 81,18.5674157 L81,19.6629213 L73.7001733,19.6629213 L73.7001733,18.5674157 C74.1306781,18.2865154 74.598611,18.0617986 75.1039861,17.8932584 L75.1039861,11.7977528 C75.1039861,10.3370713 74.9682856,9.26030309 74.6968804,8.56741573 C74.4254752,7.87452837 73.8405591,7.52808989 72.9421144,7.52808989 C72.2682809,7.52808989 71.7395166,7.78089635 71.3558059,8.28651685 C70.9720951,8.79213736 70.686656,9.46628792 70.4994801,10.3089888 L70.4994801,17.8932584 C70.8176792,17.9868919 71.1031183,18.0898871 71.3558059,18.2022472 C71.6084935,18.3146073 71.8471393,18.4363289 72.0717504,18.5674157 L72.0717504,19.6629213 Z" id="UXem-Copy" fill="#242424"></path>
        </g>
    </g>
</svg>